<?xml version="1.0" standalone="no"?>
<!DOCTYPE svg PUBLIC "-//W3C//DTD SVG 20010904//EN"
 "http://www.w3.org/TR/2001/REC-SVG-20010904/DTD/svg10.dtd">
<svg version="1.0" xmlns="http://www.w3.org/2000/svg"
 width="2160.000000pt" height="3637.000000pt" viewBox="0 0 2160.000000 3637.000000"
 preserveAspectRatio="xMidYMid meet">

<g transform="translate(0.000000,3637.000000) scale(0.100000,-0.100000)"
fill="#000000" stroke="none">
<path d="M933 18808 c2 -9094 4 -9662 20 -9808 82 -732 267 -1358 587 -1990
700 -1379 2002 -2642 3887 -3768 705 -421 1564 -855 2410 -1218 885 -379 1929
-752 2772 -990 l193 -55 167 45 c1043 282 2282 732 3386 1231 290 131 996 483
1265 630 2041 1118 3481 2400 4285 3815 452 795 697 1603 755 2485 7 109 10
3199 10 9717 l0 9558 -9870 0 -9870 0 3 -9652z m9927 8347 l0 -85 70 0 70 0 0
-55 0 -55 -70 0 -70 0 0 -95 0 -95 -60 0 -60 0 0 95 0 95 -70 0 -70 0 0 55 0
55 70 0 70 0 0 85 0 85 60 0 60 0 0 -85z m-120 -540 l0 -105 -99 0 -100 0 11
33 c28 81 107 157 186 176 1 1 2 -46 2 -104z m208 63 c36 -22 83 -86 100 -135
l11 -33 -100 0 -99 0 0 105 0 105 27 -11 c15 -6 43 -19 61 -31z m102 -283 c0
-26 -30 -78 -68 -118 -41 -42 -123 -77 -182 -77 -90 0 -192 64 -234 147 -33
65 -42 63 234 63 219 0 250 -2 250 -15z m-186 -289 c18 -7 42 -29 53 -47 22
-36 43 -120 43 -169 0 -17 4 -30 9 -30 5 0 51 9 102 19 312 63 678 87 954 61
220 -21 466 -85 619 -162 157 -78 318 -212 401 -333 24 -34 46 -55 57 -55 10
0 81 8 156 17 172 21 590 24 742 5 519 -65 898 -248 1122 -542 68 -89 143
-245 175 -365 23 -90 26 -118 27 -275 1 -245 -32 -405 -130 -645 -25 -60 -48
-117 -50 -126 -4 -12 8 -27 40 -49 48 -32 84 -79 110 -141 23 -56 11 -64 -70
-44 -83 21 -148 15 -221 -21 -64 -31 -136 -109 -158 -172 -30 -84 -35 -94 -48
-89 -6 3 -35 16 -64 28 -48 21 -56 22 -109 10 -79 -18 -137 -76 -154 -154 -10
-42 -10 -63 -1 -87 20 -57 15 -66 -71 -126 -123 -85 -309 -277 -397 -408 -146
-219 -227 -422 -269 -672 -14 -80 -23 -110 -34 -112 -8 -2 -91 17 -184 42
-875 235 -2009 352 -3071 317 -903 -29 -1631 -127 -2355 -317 -97 -26 -183
-44 -191 -41 -9 3 -17 28 -21 68 -4 34 -21 115 -37 180 -75 299 -215 546 -434
765 -66 66 -157 147 -202 178 -46 32 -83 65 -83 73 0 9 5 33 11 54 15 47 -2
120 -37 167 -57 73 -169 98 -252 54 -24 -12 -47 -20 -52 -17 -5 3 -14 25 -21
48 -46 175 -217 276 -393 232 -48 -12 -71 -14 -79 -6 -16 16 47 136 90 169 19
15 44 34 56 43 20 16 20 16 -20 110 -52 121 -96 260 -124 390 -19 87 -23 135
-23 289 1 168 3 194 27 285 133 503 585 818 1297 907 152 19 570 16 742 -5 75
-9 146 -17 156 -17 11 0 33 21 57 56 155 225 449 394 808 463 317 61 779 50
1161 -29 54 -11 102 -20 107 -20 5 0 9 19 9 43 1 60 17 125 42 160 38 53 115
71 182 43z m-6724 -2936 l0 -80 70 0 70 0 0 -60 0 -60 -70 0 -70 0 0 -67 0
-68 -65 0 -65 0 0 68 0 67 -70 0 -70 0 0 60 0 60 70 0 70 0 0 80 0 80 65 0 65
0 0 -80z m13440 -10 l0 -80 70 0 70 0 0 -50 0 -50 -70 0 -70 0 0 -92 0 -93
-50 0 -50 0 0 93 0 92 -70 0 -70 0 0 50 0 50 70 0 70 0 0 80 0 80 50 0 50 0 0
-80z m-13451 -446 c21 -26 21 -35 21 -620 l0 -594 -75 0 -76 0 3 599 c3 573 4
600 22 620 28 31 79 28 105 -5z m13142 5 c21 -5 58 -18 83 -30 l46 -20 0 -59
c0 -33 -2 -60 -4 -60 -2 0 -32 13 -67 30 -297 138 -483 -69 -373 -415 9 -27
76 -201 150 -386 74 -185 134 -341 134 -346 0 -13 -91 -37 -100 -26 -20 22
-282 701 -300 777 -25 102 -27 240 -6 308 58 192 227 279 437 227z m739 0 c90
-22 170 -101 211 -208 29 -77 29 -224 0 -335 -19 -71 -284 -751 -300 -768 -6
-7 -84 12 -96 24 -4 3 48 142 114 307 151 375 168 423 187 519 24 124 2 237
-59 300 -41 43 -55 50 -117 62 -65 12 -137 -1 -216 -40 -34 -17 -64 -30 -68
-30 -3 0 -6 26 -6 59 l0 58 60 27 c90 41 192 50 290 25z m-442 -5 l22 -15 0
-620 0 -619 -60 0 -60 0 0 619 0 620 22 15 c12 9 29 16 38 16 9 0 26 -7 38
-16z m-13738 -52 l55 -27 3 -572 c2 -486 0 -573 -12 -573 -17 0 -14 -6 -83
195 -90 266 -210 484 -349 634 l-64 69 10 51 c12 63 31 101 77 151 47 53 97
82 163 96 73 15 133 8 200 -24z m766 5 c95 -48 174 -164 174 -256 0 -27 -11
-45 -59 -96 -139 -149 -258 -369 -356 -658 -45 -132 -64 -177 -75 -175 -13 3
-15 76 -18 574 -3 651 -11 589 90 626 74 26 175 20 244 -15z m12154 -229 c0
-74 -3 -76 -99 -80 -77 -3 -94 -7 -137 -33 -30 -19 -60 -49 -79 -79 -27 -45
-30 -57 -30 -135 0 -104 20 -151 140 -336 124 -190 325 -506 325 -511 0 -2
-19 -16 -41 -31 -41 -27 -42 -27 -56 -8 -54 72 -420 649 -438 690 -46 103 -56
213 -29 305 47 159 174 248 357 249 l87 1 0 -32z m1822 -1 c130 -63 206 -199
195 -350 -9 -136 -12 -142 -312 -609 l-170 -265 -42 29 c-24 16 -43 32 -43 35
0 6 103 168 283 448 139 215 168 276 175 366 12 166 -88 269 -259 269 l-76 0
-7 38 c-13 79 -18 75 97 70 85 -3 111 -9 159 -31z m-1219 -154 l27 -14 0 -398
0 -399 -25 -4 c-23 -5 -29 7 -165 349 l-141 353 21 35 c55 89 188 126 283 78z
m547 -7 c25 -12 59 -41 77 -64 38 -51 50 -9 -120 -432 -106 -262 -126 -305
-145 -308 l-22 -3 2 408 3 408 45 12 c55 14 101 8 160 -21z m-14542 -42 c126
-134 233 -334 326 -602 31 -90 56 -165 56 -166 0 -5 -120 -39 -124 -35 -2 2
-23 63 -46 134 -110 333 -202 511 -340 659 -33 35 -56 66 -52 71 4 4 34 5 66
3 58 -4 61 -6 114 -64z m1632 60 c0 -4 -28 -36 -62 -73 -129 -136 -215 -298
-322 -605 -37 -105 -68 -191 -69 -193 -6 -5 -121 35 -124 44 -6 18 119 358
167 453 59 117 152 257 217 328 l49 52 72 0 c40 0 72 -3 72 -6z m-1849 -141
c68 -75 140 -185 194 -298 39 -81 180 -474 173 -480 -2 -1 -28 -15 -58 -30
-30 -15 -79 -43 -108 -63 -29 -19 -54 -33 -56 -31 -66 93 -272 440 -326 549
-58 119 -68 175 -46 259 18 69 35 100 84 153 l35 37 27 -19 c16 -11 52 -46 81
-77z m2081 -37 c17 -39 23 -70 23 -132 0 -78 -2 -85 -52 -185 -60 -120 -293
-508 -328 -547 -2 -2 -23 9 -47 25 -24 17 -73 46 -110 67 l-66 37 58 167 c72
207 90 253 136 344 56 111 130 215 207 291 l70 69 43 -43 c23 -23 53 -65 66
-93z m11558 -73 c4 -4 60 -138 123 -298 64 -159 123 -307 131 -327 l16 -37
-52 -26 c-42 -21 -54 -23 -63 -13 -10 11 -233 357 -368 571 l-31 48 31 31 c53
52 184 84 213 51z m1650 -13 c19 -10 48 -31 63 -48 l28 -29 -128 -199 c-71
-110 -160 -248 -197 -307 -38 -59 -74 -106 -80 -104 -79 32 -96 41 -96 49 0
23 255 644 269 656 20 17 91 7 141 -18z m-14049 -663 c52 -14 129 -39 171 -56
91 -38 238 -121 251 -143 15 -23 -172 -342 -203 -346 -12 -2 -57 12 -99 31
-146 67 -223 82 -421 81 -161 0 -182 -3 -264 -28 -49 -15 -123 -42 -165 -62
-41 -19 -81 -32 -88 -30 -14 6 -214 301 -220 325 -7 31 202 150 356 201 142
48 234 60 421 56 135 -3 182 -9 261 -29z m13442 -30 c100 -27 253 -94 359
-159 l58 -35 -105 -152 c-57 -84 -106 -156 -109 -158 -3 -3 -20 4 -38 15 -45
28 -151 70 -223 88 -202 53 -463 26 -646 -67 -34 -16 -67 -29 -74 -27 -8 2
-59 68 -115 147 l-100 145 62 39 c144 92 312 160 463 187 28 5 122 7 210 6
134 -3 176 -8 258 -29z m-2246 -4494 l-3 -4348 -21 -135 c-56 -347 -135 -605
-269 -871 -296 -591 -800 -1059 -1509 -1400 -695 -334 -1524 -526 -2504 -580
-244 -13 -911 -7 -1116 11 -1485 127 -2596 552 -3311 1264 -481 480 -751 1064
-814 1761 -6 71 -10 1616 -10 4378 l0 4267 4780 0 4780 0 -3 -4347z m-10786
3658 c29 -29 37 -68 23 -106 -4 -8 -27 -30 -51 -47 -57 -39 -83 -92 -83 -173
0 -95 14 -130 82 -196 l60 -60 -4 -50 c-4 -38 -12 -58 -32 -77 l-26 -27 -656
0 -656 0 -29 33 c-24 26 -29 41 -29 81 0 45 4 51 59 108 48 50 61 70 70 112
14 68 14 77 -5 142 -13 43 -27 65 -71 105 -56 52 -66 78 -49 132 17 52 10 51
714 52 l654 0 29 -29z m13390 1 c23 -21 31 -36 32 -65 1 -34 -6 -44 -56 -92
-45 -43 -59 -65 -73 -110 -28 -97 -5 -185 64 -247 50 -45 62 -67 62 -113 0
-55 -24 -92 -68 -105 -25 -8 -234 -10 -669 -8 l-633 3 -27 28 c-24 23 -28 36
-28 83 0 55 1 57 52 102 64 57 83 100 83 189 -1 88 -25 143 -79 177 -22 14
-45 34 -51 45 -24 46 -2 113 44 131 11 5 312 9 668 9 l648 1 31 -28z m-13501
-1581 l0 -678 -162 -7 c-227 -10 -388 -23 -563 -47 -128 -17 -350 -58 -407
-75 -17 -5 -18 35 -18 740 l0 746 575 0 575 0 0 -679z m13390 -67 l0 -746 -27
7 c-136 34 -392 77 -573 95 -84 8 -456 29 -532 30 -17 0 -18 39 -18 680 l0
680 575 0 575 0 0 -746z m-12875 -784 c295 -14 514 -40 643 -76 l22 -6 0 -424
c0 -233 -3 -424 -6 -424 -3 0 -40 9 -82 19 -409 104 -1214 115 -1762 25 -408
-67 -845 -227 -1127 -412 -104 -69 -231 -185 -278 -254 l-31 -47 -134 302
c-173 392 -172 388 -161 437 47 208 435 470 956 647 133 45 378 109 520 137
375 73 901 100 1440 76z m11916 0 c453 -18 776 -69 1148 -181 577 -174 1024
-464 1065 -691 7 -37 -20 -105 -229 -575 l-67 -152 -43 57 c-210 284 -757 542
-1385 652 -268 47 -384 55 -845 55 -523 0 -671 -14 -992 -92 l-23 -5 0 425 0
425 69 16 c263 60 792 87 1302 66z m-12431 -1603 l0 -613 -162 -96 c-296 -174
-639 -351 -888 -457 l-95 -40 -3 816 c-2 635 1 818 10 824 27 17 311 90 440
114 182 33 439 59 616 63 l82 2 0 -613z m12470 603 c316 -22 577 -68 838 -146
l82 -25 0 -819 c0 -451 -2 -820 -4 -820 -2 0 -69 29 -148 64 -271 120 -562
272 -870 453 l-128 75 0 614 0 614 43 0 c23 0 107 -5 187 -10z m-13827 -360
l57 0 0 -375 0 -375 -37 5 c-167 21 -219 30 -303 51 -189 49 -331 144 -360
241 -12 38 -10 44 24 111 57 107 155 199 327 307 l74 46 80 -5 c44 -3 106 -6
138 -6z m15242 -35 c157 -93 271 -199 331 -308 35 -65 36 -71 25 -109 -7 -22
-33 -62 -57 -88 -97 -104 -293 -172 -586 -205 l-58 -6 0 370 0 371 23 5 c12 3
56 6 97 8 41 2 92 4 112 5 29 2 55 -9 113 -43z m-13510 -190 c134 -36 285
-103 285 -128 0 -30 -467 -426 -502 -427 -5 0 -8 133 -8 296 l0 296 68 -7 c37
-4 108 -18 157 -30z m11715 -260 c0 -162 -4 -295 -8 -295 -18 0 -268 198 -386
306 -142 131 -139 121 -52 166 98 51 328 115 419 117 l27 1 0 -295z m-11341
-385 c34 -265 37 -308 25 -327 -27 -44 -219 -179 -462 -327 -499 -302 -1115
-615 -1615 -821 -163 -66 -358 -137 -364 -132 -2 3 25 125 61 273 35 148 73
312 85 364 l22 95 107 34 c339 106 828 337 1312 619 288 168 691 448 765 532
14 15 21 18 23 9 1 -8 20 -151 41 -319z m10870 252 c414 -358 1472 -930 2039
-1103 37 -12 70 -24 75 -28 8 -8 179 -722 174 -728 -2 -1 -41 10 -88 26 -432
148 -1157 497 -1744 839 -232 135 -507 317 -573 378 l-51 49 39 310 c22 171
40 313 40 318 0 14 11 7 89 -61z m-11597 -4047 c19 -81 53 -177 80 -220 21
-34 23 -76 6 -93 -9 -9 -174 -12 -682 -12 -609 0 -671 1 -688 17 -24 21 -23
39 6 94 32 59 64 156 83 249 14 64 16 229 20 1125 l5 1050 136 59 c166 71 685
326 872 428 l135 73 6 -1350 c5 -1187 7 -1358 21 -1420z m12406 2671 c226
-121 603 -306 802 -394 l155 -69 6 -1049 c5 -896 8 -1060 22 -1126 20 -99 42
-168 78 -240 34 -67 35 -75 12 -100 -15 -17 -50 -18 -688 -18 -508 0 -674 3
-683 12 -20 20 -14 49 23 124 19 39 45 111 57 160 22 89 22 89 25 1442 2 743
6 1352 9 1352 3 0 85 -42 182 -94z m-12100 -3433 l-3 -258 -907 -3 -908 -2 0
260 0 260 910 0 910 0 -2 -257z m13402 -3 l0 -260 -907 2 -908 3 -3 258 -2
257 910 0 910 0 0 -260z m-13984 -528 c44 -12 163 -50 263 -87 274 -98 323
-109 471 -108 87 0 157 7 230 21 161 33 150 38 150 -67 l0 -89 -122 -23 c-95
-18 -156 -24 -268 -23 -172 1 -237 15 -518 117 -250 91 -303 102 -497 102
-192 0 -249 -12 -482 -96 -382 -138 -511 -154 -810 -98 l-123 23 0 88 0 88 28
0 c15 0 74 -9 131 -20 236 -46 346 -37 601 52 415 143 443 149 690 144 134 -3
194 -9 256 -24z m13209 18 c116 -16 201 -40 405 -113 312 -111 416 -125 637
-86 65 11 137 23 161 26 l42 6 0 -91 0 -90 -117 -23 c-92 -18 -152 -23 -273
-24 -183 0 -232 11 -514 112 -266 95 -321 107 -506 107 -189 1 -240 -9 -505
-104 -291 -104 -342 -115 -520 -115 -119 0 -175 5 -267 24 l-118 24 0 90 0 90
38 -6 c20 -3 93 -15 162 -27 216 -38 350 -19 654 95 164 61 233 81 346 100 91
16 280 18 375 5z m-13225 -429 c47 -10 144 -40 215 -66 335 -121 419 -140 575
-132 58 3 151 15 208 26 56 12 109 21 117 21 12 0 15 -18 15 -89 l0 -89 -52
-11 c-153 -33 -247 -43 -373 -38 -152 6 -219 22 -491 121 -238 85 -313 101
-489 100 -177 0 -255 -16 -490 -101 -294 -106 -342 -117 -530 -118 -130 0
-182 4 -277 24 l-118 24 0 90 0 90 38 -6 c20 -3 93 -15 162 -27 221 -39 347
-22 649 89 179 66 257 88 366 106 122 20 360 13 475 -14z m13319 -1 c57 -11
178 -48 270 -81 269 -97 321 -110 456 -116 102 -5 141 -1 259 21 77 14 145 26
153 26 10 0 13 -21 13 -89 l0 -89 -51 -11 c-140 -30 -234 -42 -339 -42 -136
-1 -239 20 -415 81 -66 23 -163 57 -216 75 -183 64 -350 85 -514 65 -114 -14
-209 -39 -385 -105 -232 -86 -318 -107 -475 -112 -115 -4 -163 -1 -269 17 -70
12 -134 24 -142 27 -20 8 -20 183 0 183 8 0 58 -10 112 -22 78 -17 132 -22
254 -22 176 0 196 5 495 113 255 93 356 112 560 106 80 -2 170 -12 234 -25z
m-13336 -381 c54 -11 186 -51 295 -90 256 -92 340 -112 467 -111 84 0 264 24
363 49 22 5 22 4 22 -89 l0 -94 -132 -24 c-101 -18 -165 -24 -263 -23 -156 1
-266 27 -520 121 -242 90 -279 97 -490 97 -210 0 -253 -9 -516 -105 -259 -95
-347 -115 -514 -113 -102 1 -173 8 -260 25 l-120 24 -3 84 c-2 46 1 87 5 91 4
4 67 -4 138 -18 169 -32 316 -34 436 -5 47 11 168 51 270 87 101 36 222 75
269 86 172 41 370 44 553 8z m13382 -12 c55 -15 163 -49 240 -78 346 -127 442
-139 710 -88 55 10 113 19 128 19 l28 0 -3 -87 -3 -88 -115 -23 c-88 -18 -151
-24 -265 -25 -177 -2 -242 12 -519 113 -261 95 -310 105 -511 105 -201 0 -230
-6 -514 -107 -275 -98 -337 -112 -501 -112 -102 -1 -166 5 -262 23 l-128 24 0
93 c0 82 2 92 18 89 371 -75 486 -68 803 50 301 113 365 126 609 121 158 -3
199 -8 285 -29z m-6795 -1337 c360 -28 656 -106 965 -254 406 -196 729 -460
996 -817 388 -516 578 -1186 519 -1824 -32 -340 -113 -630 -265 -940 -342
-701 -985 -1226 -1732 -1415 -253 -63 -350 -74 -663 -74 -319 0 -418 11 -678
79 -748 196 -1375 711 -1718 1410 -331 675 -364 1441 -92 2139 423 1085 1520
1783 2668 1696z m-5083 -1977 c66 -42 89 -72 102 -134 7 -32 11 -224 11 -523
l0 -473 38 -41 c22 -23 45 -42 54 -42 8 0 29 16 48 35 38 40 50 42 73 17 15
-16 7 -25 -115 -132 -73 -63 -135 -117 -140 -118 -4 -2 -61 38 -126 89 -64 51
-118 94 -120 95 -2 1 12 23 30 49 l33 47 3 436 c3 490 3 484 -69 525 l-36 21
-42 -34 -42 -34 -20 20 -20 20 132 112 c73 62 137 109 143 105 6 -4 34 -22 63
-40z m8876 21 c206 -105 346 -253 404 -428 25 -74 27 -95 27 -236 1 -150 -1
-158 -32 -250 -58 -166 -167 -315 -332 -454 l-89 -75 -62 24 c-99 39 -149 73
-234 159 -125 126 -188 269 -202 457 -21 291 119 565 397 778 36 28 66 50 68
51 1 0 26 -12 55 -26z m1142 -24 c263 -122 397 -339 381 -615 -16 -282 -147
-522 -397 -730 l-90 -75 -201 101 -201 101 86 85 85 86 163 -87 c119 -64 168
-86 179 -79 25 16 97 129 120 190 12 32 28 87 36 123 16 78 30 280 19 280 -4
0 -112 -73 -238 -162 l-230 -161 -55 29 c-77 41 -157 121 -190 191 -25 53 -27
68 -27 178 0 118 1 121 37 195 61 124 170 239 342 359 67 47 62 47 181 -9z
m-9008 -5 c179 -84 298 -210 355 -373 20 -59 23 -85 22 -212 0 -128 -4 -156
-27 -233 -49 -159 -121 -279 -246 -410 -79 -82 -191 -177 -210 -177 -19 0
-391 190 -391 199 0 5 38 43 84 85 l84 77 163 -90 164 -89 33 37 c43 48 107
180 127 261 8 36 18 121 22 189 5 105 4 123 -8 115 -8 -4 -113 -78 -233 -162
l-219 -155 -51 26 c-190 93 -273 293 -209 502 38 124 144 252 317 382 112 85
105 84 223 28z"/>
<path d="M9695 25849 c-412 -42 -695 -188 -844 -433 -153 -254 -149 -629 14
-1068 25 -67 45 -128 45 -135 0 -7 -35 -38 -77 -69 -112 -82 -113 -86 -49
-150 31 -32 52 -44 72 -44 40 0 107 -20 116 -34 4 -6 -13 -29 -42 -54 -82 -72
-91 -168 -23 -243 97 -107 263 -58 293 86 13 67 64 22 101 -89 l16 -51 69 -1
c76 -1 131 -22 173 -68 23 -25 23 -26 6 -53 -44 -69 -102 -112 -172 -127 l-32
-7 1 -72 c0 -120 -30 -160 -71 -94 -32 52 -92 80 -157 75 -58 -5 -93 -25 -128
-72 -30 -39 -29 -145 2 -202 47 -91 120 -128 252 -127 106 0 191 26 273 81 41
29 137 125 137 138 0 3 -13 21 -30 40 -39 45 -47 93 -24 141 35 71 111 101
174 68 70 -36 95 -109 61 -177 l-22 -43 47 -42 c166 -153 500 -177 675 -49
120 88 135 288 28 368 -108 81 -247 50 -305 -67 -18 -38 -32 -55 -43 -53 -25
5 -62 91 -68 158 l-6 60 -36 5 c-113 17 -187 53 -231 115 l-22 30 21 34 c38
61 117 104 211 115 l55 6 8 65 c15 123 76 200 100 125 25 -79 104 -135 191
-135 134 0 228 133 184 261 -19 55 -49 88 -105 115 -81 40 -70 61 55 103 62
21 81 33 99 60 59 87 -3 191 -114 191 -48 0 -83 29 -83 68 0 15 12 63 26 107
33 104 60 235 73 360 11 101 30 506 31 646 l0 76 -107 17 c-298 47 -627 65
-818 45z"/>
<path d="M11505 25853 c-91 -5 -238 -23 -382 -45 l-143 -22 0 -50 c0 -143 21
-612 31 -691 14 -118 44 -257 74 -346 14 -40 25 -85 25 -100 0 -36 -42 -69
-87 -69 -107 0 -167 -106 -110 -191 18 -27 37 -39 99 -60 125 -42 136 -63 55
-103 -154 -75 -157 -279 -5 -357 102 -52 240 6 275 116 24 75 85 -2 100 -125
l8 -65 55 -6 c93 -10 170 -54 215 -122 16 -25 16 -27 -5 -57 -44 -62 -118 -98
-231 -115 l-36 -5 -6 -60 c-6 -67 -43 -153 -68 -158 -11 -2 -25 15 -43 53 -58
117 -197 148 -305 67 -45 -34 -71 -93 -71 -168 0 -163 135 -269 360 -281 163
-8 311 38 413 129 l48 43 -22 43 c-34 68 -9 141 61 177 63 33 139 3 174 -68
23 -49 15 -96 -25 -142 -36 -41 -33 -49 43 -121 101 -96 204 -138 338 -139
174 0 273 86 275 237 0 52 -4 72 -21 94 -35 47 -70 67 -128 72 -65 5 -125 -23
-157 -75 -41 -66 -71 -26 -71 94 l1 72 -32 7 c-70 15 -128 58 -172 127 -17 27
-17 28 6 53 42 46 97 67 173 68 l69 1 16 51 c37 111 88 156 101 89 17 -78 73
-132 149 -142 55 -7 104 12 144 56 68 75 59 171 -23 243 -29 25 -46 48 -42 54
9 14 76 34 116 34 20 0 41 12 72 44 64 64 63 68 -48 150 -43 31 -78 62 -78 69
0 7 20 68 45 135 163 440 167 807 14 1069 -49 84 -189 219 -281 271 -231 131
-574 190 -963 165z"/>
<path d="M7880 25323 c-701 -55 -1123 -363 -1215 -888 -31 -180 -16 -431 40
-664 l25 -104 -46 -89 c-37 -72 -43 -92 -34 -104 7 -8 20 -14 30 -14 9 0 38
-11 64 -24 27 -14 54 -22 60 -20 6 2 21 26 33 52 29 62 90 142 109 142 26 0
93 -82 134 -162 25 -50 43 -105 51 -154 8 -45 19 -78 27 -81 7 -3 30 10 50 30
69 65 162 92 236 67 39 -13 41 -18 36 -128 -2 -51 14 -61 60 -37 95 49 255
-14 235 -92 -9 -39 -82 -105 -133 -122 -23 -8 -42 -20 -42 -27 0 -8 10 -34 22
-59 31 -63 18 -73 -61 -51 -37 10 -74 14 -95 11 -30 -6 -34 -11 -40 -46 -7
-42 6 -115 29 -159 21 -40 88 -95 134 -108 130 -40 269 20 318 135 19 48 16
77 -12 103 -81 76 -34 215 77 227 82 9 155 -69 143 -154 l-6 -41 70 -35 c202
-101 457 -55 530 96 42 87 18 220 -49 269 -89 64 -234 9 -261 -99 -6 -24 -16
-46 -21 -49 -22 -14 -71 62 -86 133 l-8 38 -71 1 c-59 0 -79 5 -124 31 -72 41
-79 54 -53 101 30 51 82 91 146 112 l53 17 -3 55 c-5 71 13 138 36 138 9 -1
26 -15 37 -33 26 -41 90 -77 138 -77 112 0 195 105 167 210 -15 56 -73 114
-127 127 -61 14 -51 40 35 86 105 57 106 60 40 214 -115 266 -166 467 -175
694 -7 170 11 305 58 433 16 44 27 81 25 83 -15 15 -443 27 -586 16z"/>
<path d="M13241 25320 c-56 -5 -105 -10 -107 -12 -2 -2 10 -42 26 -88 48 -141
63 -253 56 -425 -9 -229 -60 -434 -174 -698 -66 -154 -65 -157 40 -214 89 -48
96 -69 27 -89 -86 -26 -144 -125 -120 -206 23 -76 90 -128 166 -128 49 0 111
34 138 75 12 19 30 35 39 35 23 0 41 -67 36 -138 l-3 -55 53 -17 c64 -21 116
-62 146 -112 26 -47 19 -60 -53 -101 -45 -26 -65 -31 -124 -31 l-71 -1 -8 -38
c-15 -72 -64 -147 -87 -132 -6 3 -15 24 -21 46 -14 51 -62 105 -107 120 -46
15 -118 6 -152 -18 -68 -50 -93 -182 -50 -270 73 -151 328 -197 530 -96 l70
35 -6 41 c-12 85 61 163 143 154 111 -12 158 -151 77 -227 -28 -26 -31 -56
-12 -103 61 -143 258 -194 385 -100 67 50 109 151 96 232 -6 35 -10 40 -40 46
-21 3 -58 -1 -95 -11 -79 -22 -92 -12 -61 51 12 25 22 51 22 59 0 7 -19 19
-42 27 -51 17 -124 83 -133 122 -8 32 18 67 70 94 38 20 124 19 165 -2 47 -25
62 -14 60 43 -5 103 -3 109 36 122 74 25 167 -2 236 -67 20 -20 43 -33 50 -30
8 3 19 36 27 81 8 49 26 104 51 154 39 77 110 162 136 162 17 0 79 -82 107
-142 12 -26 27 -50 33 -52 6 -2 33 6 60 20 26 13 55 24 64 24 10 0 23 6 30 14
9 12 3 32 -34 104 l-46 89 25 104 c45 186 58 307 52 489 -5 179 -23 268 -78
402 -145 351 -477 568 -989 643 -125 19 -491 27 -639 15z"/>
<path d="M10715 23776 c-65 -30 -115 -110 -115 -185 0 -23 11 -60 28 -92 22
-43 38 -59 81 -81 31 -16 69 -28 91 -28 22 0 60 12 91 28 97 50 135 167 87
262 -13 24 -40 57 -61 74 -33 26 -48 31 -105 33 -42 2 -78 -2 -97 -11z"/>
<path d="M8725 23496 c-112 -50 -129 -216 -30 -292 89 -68 217 -29 260 78 32
80 -6 172 -86 214 -35 17 -104 18 -144 0z"/>
<path d="M12725 23492 c-108 -68 -123 -196 -34 -277 117 -105 290 -17 277 142
-8 91 -63 144 -155 150 -45 3 -65 0 -88 -15z"/>
<path d="M10580 22356 c-154 -80 -195 -105 -195 -121 0 -15 43 -41 207 -125
l208 -105 206 104 c113 58 208 111 211 118 3 8 -1 20 -8 28 -26 24 -394 205
-414 204 -11 -1 -108 -47 -215 -103z"/>
<path d="M8792 22246 c-189 -123 -211 -141 -197 -155 19 -18 410 -162 430
-158 11 2 100 56 198 121 123 80 177 122 175 133 -2 10 -73 42 -208 94 -113
44 -209 79 -215 79 -5 -1 -88 -52 -183 -114z"/>
<path d="M9835 22345 c-134 -48 -148 -239 -21 -299 93 -44 197 4 227 104 36
121 -87 238 -206 195z"/>
<path d="M11668 22348 c-47 -13 -105 -75 -114 -123 -8 -43 7 -101 36 -137 60
-77 195 -75 251 4 92 129 -21 297 -173 256z"/>
<path d="M12405 22280 c-158 -61 -200 -81 -200 -96 0 -20 347 -253 378 -254
24 0 410 150 419 163 4 6 2 17 -3 23 -17 21 -367 244 -381 243 -7 0 -103 -36
-213 -79z"/>
<path d="M8125 22110 c-128 -84 -46 -284 104 -254 46 9 98 62 106 107 10 53
-1 85 -44 129 -34 34 -44 38 -87 38 -32 0 -60 -7 -79 -20z"/>
<path d="M13328 22113 c-32 -20 -68 -81 -68 -117 0 -136 182 -194 256 -81 41
63 22 156 -41 195 -40 25 -110 26 -147 3z"/>
<path d="M6360 18310 l0 -2540 1470 0 c1169 0 1470 3 1470 13 2 110 47 360 89
497 l29 90 -303 0 -303 0 -4 273 c-5 303 -6 312 -75 388 -50 55 -105 81 -184
87 -56 4 -75 1 -120 -20 -65 -30 -114 -77 -143 -138 -20 -42 -21 -64 -24 -317
l-3 -273 -495 0 -494 0 0 340 0 340 150 0 150 0 -2 678 -3 677 -77 3 -78 3 0
289 0 289 78 3 77 3 3 193 2 192 -60 0 -60 0 0 170 0 170 50 0 50 0 0 -65 0
-65 50 0 50 0 0 65 0 65 100 0 100 0 0 -65 0 -65 55 0 55 0 0 65 0 65 50 0 50
0 0 -170 0 -170 -60 0 -60 0 0 -195 0 -195 178 2 177 3 3 423 2 422 -70 0 -70
0 0 205 0 205 50 0 50 0 0 -70 0 -70 85 0 85 0 0 70 0 70 105 0 105 0 0 -70 0
-71 83 3 82 3 3 68 3 67 49 0 50 0 0 -205 0 -205 -70 0 -70 0 2 -422 3 -423
175 0 175 0 3 193 2 192 -60 0 -60 0 0 170 0 170 50 0 50 0 0 -65 0 -65 50 0
50 0 0 65 0 65 105 0 105 0 0 -65 0 -65 50 0 50 0 0 65 0 65 50 0 50 0 0 -170
0 -170 -60 0 -60 0 0 -195 0 -195 80 0 80 0 0 -290 0 -290 -80 0 -80 0 0 -680
0 -680 186 0 186 0 73 59 c198 159 434 260 686 294 l94 13 0 1714 0 1715
-2182 3 -2183 2 0 -2540z"/>
<path d="M10870 19131 l0 -1718 69 -7 c468 -46 915 -381 1151 -861 108 -221
178 -485 192 -725 l3 -45 1478 -3 1477 -2 0 2540 0 2540 -2185 0 -2185 0 0
-1719z m2228 1343 c25 -16 27 -26 11 -55 -9 -18 -7 -19 15 -13 31 8 53 -25 36
-56 -12 -23 -15 -24 -41 -10 -15 9 -19 7 -19 -7 0 -25 28 -63 46 -63 8 0 23
-6 34 -12 15 -9 25 -10 37 -2 25 16 27 34 4 34 -26 0 -38 26 -24 49 15 23 42
26 57 5 12 -15 14 -14 19 15 6 28 10 32 33 29 43 -5 53 -32 24 -63 l-23 -25
22 0 c26 0 38 -26 24 -49 -15 -23 -42 -26 -57 -5 -13 17 -14 16 -25 -5 -7 -12
-9 -30 -6 -41 6 -19 42 -37 52 -26 4 3 11 -4 17 -16 15 -29 42 -34 67 -12 24
22 24 30 -1 37 -35 9 -19 67 18 67 8 0 21 -8 28 -17 11 -16 13 -16 19 10 5 19
14 27 29 27 46 0 62 -45 24 -69 l-22 -14 22 -8 c24 -9 29 -38 10 -57 -17 -17
-45 -15 -52 3 -8 22 -21 18 -34 -11 -14 -30 -1 -64 26 -64 9 0 22 -10 27 -22
11 -26 49 -35 71 -18 19 17 18 27 -6 33 -24 6 -26 30 -4 51 22 22 43 20 53 -6
9 -23 9 -23 21 5 15 30 41 35 64 11 23 -23 20 -43 -10 -56 l-25 -12 21 -16
c19 -14 21 -20 11 -38 -16 -30 -57 -29 -65 1 -6 22 -7 22 -21 3 -20 -27 -19
-43 5 -56 11 -6 20 -17 20 -25 0 -17 30 -35 59 -35 24 0 25 3 9 29 -9 15 -9
23 1 35 27 32 69 13 62 -27 -2 -18 -1 -18 23 -2 32 21 50 15 75 -26 22 -36 19
-54 -7 -40 -59 30 -171 17 -267 -29 l-60 -29 -19 27 c-69 98 -281 263 -399
311 l-54 22 14 52 c20 74 11 183 -20 246 -14 27 -23 52 -19 55 7 8 40 -2 70
-20z m51 -460 c91 -50 170 -114 243 -194 65 -73 106 -96 152 -84 35 9 33 -8
-7 -52 -23 -26 -43 -37 -73 -41 l-41 -5 15 -47 c12 -38 23 -240 22 -403 0 -12
8 -18 22 -18 12 0 30 8 41 18 19 16 19 16 12 -8 -20 -67 -67 -106 -120 -97
-41 7 -44 -3 -14 -44 l21 -29 -42 -126 c-30 -89 -57 -147 -91 -199 -27 -40
-49 -82 -49 -93 0 -27 30 -36 77 -23 20 6 39 9 41 7 7 -7 -26 -72 -53 -104
-32 -38 -83 -66 -140 -76 -49 -10 -105 -38 -148 -76 l-34 -29 -21 38 c-12 21
-24 63 -28 94 -8 64 -12 67 -110 67 -47 0 -74 -6 -117 -28 -64 -32 -67 -30
-67 44 0 50 19 95 57 136 l25 26 -43 23 c-51 25 -153 36 -198 21 -30 -10 -31
-10 -31 16 0 59 22 105 75 159 l54 53 -48 24 c-56 29 -161 50 -203 41 -30 -7
-30 -7 -23 26 13 58 44 108 83 133 45 30 110 43 267 56 132 10 155 22 155 80
0 34 11 43 80 65 30 10 59 21 64 25 4 5 -4 29 -19 54 -24 41 -27 54 -21 96 4
28 4 50 2 50 -16 0 -37 -67 -34 -108 4 -54 5 -53 -146 -108 -82 -30 -106 -35
-146 -29 -27 4 -74 1 -105 -5 -63 -13 -80 -7 -48 15 24 17 37 51 52 138 10 56
41 121 41 86 0 -9 9 -28 21 -43 45 -57 145 -19 170 64 10 32 9 44 -7 77 -27
53 -81 80 -134 64 -21 -6 -50 -25 -63 -41 -22 -25 -27 -27 -37 -15 -7 9 -16
44 -19 79 -4 34 -14 75 -24 89 -9 14 -14 32 -11 40 3 8 40 30 83 50 43 19 94
49 114 66 l35 32 150 -3 c140 -3 152 -2 179 18 32 25 46 21 162 -42z m-1495
-38 c58 -24 106 -109 106 -185 -1 -20 -7 -62 -15 -95 -12 -52 -12 -68 6 -160
11 -60 32 -127 51 -166 62 -126 191 -225 329 -250 35 -7 75 -14 87 -16 18 -4
22 -9 17 -22 -10 -22 -19 -192 -11 -192 4 0 23 7 44 16 36 15 146 23 158 11 3
-3 -6 -26 -21 -51 -22 -38 -40 -52 -101 -83 -73 -36 -75 -36 -107 -20 -18 9
-44 26 -58 37 -20 17 -49 23 -130 31 -174 16 -273 45 -318 93 l-22 23 48 -4
c26 -3 59 0 73 6 21 8 22 10 5 10 -36 2 -120 47 -148 80 -17 20 -27 44 -27 64
l0 30 23 -21 c27 -26 72 -43 92 -36 11 5 2 21 -37 65 -29 32 -59 59 -67 59 -7
0 -28 9 -46 20 -42 26 -69 89 -60 142 9 53 -12 58 -73 19 -59 -38 -78 -38
-127 -5 -47 31 -72 27 -114 -21 l-31 -36 0 39 c0 86 94 163 209 170 99 7 104
33 14 84 -64 36 -77 57 -70 115 4 39 1 46 -25 68 -19 17 -42 25 -66 25 -35 1
-36 2 -17 15 36 28 83 35 131 20 66 -20 108 -57 154 -135 45 -77 71 -98 90
-75 10 12 9 24 -4 58 -9 23 -16 50 -16 59 0 29 21 65 46 79 34 18 33 77 -2
118 -28 34 -21 38 30 17z m486 -176 c19 -5 56 -27 83 -49 61 -50 98 -64 287
-106 l155 -34 -213 0 c-246 -1 -256 1 -342 83 -30 29 -72 58 -93 65 -42 14
-40 26 6 40 43 12 75 13 117 1z m2195 -245 c170 -43 290 -143 372 -310 52
-108 58 -116 103 -144 39 -23 126 -29 162 -10 33 17 33 1 2 -39 -17 -20 -55
-50 -85 -65 -48 -25 -62 -28 -124 -24 -79 4 -133 28 -179 76 -32 33 -63 40
-72 16 -9 -21 20 -99 52 -140 l27 -36 -29 7 c-108 26 -172 100 -224 259 -43
134 -88 201 -159 243 -123 72 -272 -2 -354 -176 -30 -62 -32 -75 -32 -172 0
-137 23 -206 165 -490 161 -322 189 -418 197 -666 5 -133 3 -170 -12 -220 -46
-161 -169 -263 -347 -288 -94 -14 -106 -26 -72 -75 13 -19 35 -70 50 -113 28
-84 25 -82 113 -92 83 -9 139 -79 126 -158 -6 -34 -23 -58 -100 -139 -114
-120 -136 -166 -115 -238 36 -120 -5 -193 -117 -210 -53 -7 -50 -1 -37 -92 5
-31 2 -39 -26 -62 -17 -15 -42 -27 -55 -27 -28 0 -45 -26 -45 -70 0 -17 5 -40
10 -51 16 -29 -4 -23 -39 11 -54 54 -55 145 -2 252 34 70 39 103 17 111 -17 7
-37 -15 -65 -71 -30 -59 -75 -79 -128 -57 -33 14 -38 14 -60 -1 -14 -8 -33
-34 -43 -56 l-18 -40 -11 35 c-18 54 1 108 57 167 32 33 61 52 92 61 56 15 79
34 62 51 -9 9 -21 9 -50 0 -62 -19 -100 -15 -127 13 -14 13 -25 31 -25 39 0
38 -75 43 -128 8 -21 -13 -22 -13 -15 4 36 98 143 128 298 84 104 -30 156 -27
199 10 62 55 85 174 46 238 -18 29 -19 36 -6 60 19 39 28 97 20 139 l-7 36
-20 -39 c-30 -60 -66 -94 -132 -124 -86 -40 -108 -67 -113 -140 -2 -33 -9 -60
-15 -60 -22 0 -87 82 -100 128 l-14 47 -13 -44 c-6 -24 -9 -60 -5 -80 l7 -36
-21 19 c-12 11 -36 49 -54 85 -32 65 -32 68 -32 206 1 123 4 156 33 271 18 72
32 156 32 186 0 125 -59 257 -154 345 -50 47 -100 75 -306 176 -135 66 -255
127 -267 134 l-22 14 35 46 c19 25 44 63 54 84 19 36 22 37 57 32 21 -3 42
-12 46 -20 4 -7 19 -25 31 -40 l24 -28 40 42 c42 43 99 68 141 61 19 -2 26
-13 35 -49 18 -68 47 -110 101 -147 46 -31 51 -32 60 -16 40 68 96 109 169
123 l43 8 -5 -72 c-4 -61 -1 -78 21 -121 33 -65 108 -141 241 -243 60 -46 126
-101 148 -123 44 -44 98 -148 98 -189 0 -47 21 -63 74 -56 97 14 181 84 207
175 19 63 16 243 -5 353 -25 133 -49 197 -166 439 -59 124 -119 261 -134 305
-72 225 -57 380 50 538 103 150 258 234 439 236 39 1 98 -6 130 -14z m-1945
-952 l11 -32 44 31 c30 21 59 32 94 36 28 2 51 2 51 -1 0 -2 -7 -22 -16 -42
-10 -25 -14 -60 -12 -102 l3 -64 -49 3 -50 3 -14 -48 c-13 -45 -85 -138 -97
-125 -3 3 -1 24 4 47 5 23 5 54 1 69 -5 17 -9 20 -9 9 -3 -55 -77 -142 -133
-158 -44 -11 -90 3 -49 16 25 7 61 60 61 88 0 21 -8 22 -29 3 -9 -7 -35 -24
-59 -38 -25 -14 -51 -40 -60 -59 -11 -22 -33 -42 -63 -57 -42 -21 -51 -22 -94
-11 -59 15 -71 2 -48 -50 9 -20 18 -53 21 -74 3 -32 0 -41 -27 -66 -17 -16
-31 -39 -31 -51 0 -28 26 -76 47 -89 15 -9 13 -10 -13 -11 -45 0 -94 38 -123
95 -22 42 -26 63 -26 134 0 53 -4 86 -11 88 -11 4 -37 -20 -98 -87 -25 -27
-34 -31 -65 -27 -20 3 -46 8 -58 12 -27 9 -69 -32 -82 -79 l-8 -31 -12 28
c-16 41 -14 75 10 123 28 59 74 97 157 128 76 29 98 47 88 71 -5 14 -18 15
-73 10 -76 -6 -89 0 -117 53 -14 27 -22 32 -52 32 -19 0 -48 -7 -64 -15 -26
-13 -30 -14 -30 -1 0 23 51 77 87 92 53 23 145 18 215 -12 57 -24 69 -25 172
-20 179 8 264 45 400 175 50 47 111 104 136 126 l45 40 6 -65 c4 -36 12 -79
19 -97z m432 -715 c72 -33 142 -103 176 -176 23 -49 27 -70 27 -147 l0 -90
-65 -5 c-77 -6 -87 -12 -107 -57 -29 -71 17 -143 91 -143 l41 0 -41 -40 c-22
-22 -65 -51 -97 -64 l-56 -23 35 -16 c19 -9 52 -20 75 -23 l40 -7 -28 -29
c-15 -16 -57 -43 -93 -61 -59 -29 -73 -32 -160 -32 -83 1 -102 4 -153 29 -75
36 -88 27 -64 -41 24 -66 22 -77 -19 -123 -31 -34 -36 -45 -30 -72 3 -18 19
-45 34 -61 l27 -29 -30 7 c-95 23 -139 92 -140 222 0 45 -3 85 -7 89 -12 11
-38 -16 -64 -68 -13 -26 -33 -52 -43 -58 -25 -13 -77 -13 -102 1 -29 15 -66
-12 -89 -63 l-18 -41 -11 39 c-16 57 1 106 57 164 32 33 61 52 92 61 56 15 79
34 62 51 -9 9 -21 9 -50 0 -62 -19 -96 -15 -126 14 -14 15 -26 33 -26 40 0 16
-31 34 -57 34 -10 0 -31 -7 -47 -15 -36 -19 -43 -13 -26 21 21 37 61 63 119
74 69 13 100 6 217 -51 81 -39 112 -49 153 -49 135 0 230 126 195 258 -10 35
-37 22 -50 -23 l-11 -40 -21 42 c-28 54 -37 114 -23 154 l11 32 -21 -19 c-25
-23 -59 -86 -59 -111 -1 -16 -2 -16 -13 2 -6 12 -12 58 -12 110 0 78 4 98 28
150 66 141 189 217 342 212 61 -2 94 -10 137 -29z"/>
<path d="M12750 19925 c-27 -33 30 -85 94 -85 33 0 87 22 103 42 11 13 2 18
-66 36 -92 26 -114 27 -131 7z"/>
<path d="M8040 18362 c-22 -12 -44 -35 -57 -62 -22 -42 -23 -57 -23 -242 l0
-198 150 0 150 0 0 203 c0 172 -3 207 -18 237 -36 73 -127 101 -202 62z"/>
<path d="M8882 18360 c-67 -41 -72 -61 -72 -292 l0 -208 151 0 150 0 -3 208
c-3 195 -4 209 -26 243 -41 66 -134 89 -200 49z"/>
<path d="M10599 17135 c-279 -53 -541 -226 -740 -491 -73 -96 -177 -304 -219
-438 -180 -573 -37 -1219 360 -1616 411 -413 999 -460 1456 -117 91 69 233
221 302 326 115 172 198 381 238 596 29 153 26 492 -5 635 -117 547 -467 960
-921 1085 -120 34 -349 43 -471 20z m-230 -539 c69 -105 84 -156 78 -261 -3
-49 -12 -109 -20 -132 l-16 -41 36 24 c53 36 94 40 147 14 34 -16 50 -32 66
-65 25 -52 22 -77 -22 -171 -29 -62 -30 -63 -46 -44 -39 47 -122 41 -166 -10
-24 -29 -28 -30 -110 -30 -75 0 -85 2 -91 19 -19 60 -141 74 -178 21 -13 -19
-16 -15 -48 52 -50 110 -42 165 35 222 40 31 114 28 158 -6 l34 -26 -19 72
c-23 91 -19 201 11 268 24 56 91 158 102 158 4 0 26 -29 49 -64z m989 -76 c33
-68 36 -82 36 -155 -1 -70 -7 -108 -31 -189 -5 -17 -1 -16 25 6 74 62 175 39
221 -49 19 -37 12 -85 -23 -160 l-33 -73 -22 24 c-43 45 -124 38 -163 -14 -21
-29 -25 -30 -101 -30 -75 0 -79 1 -103 30 -44 51 -115 59 -161 17 -13 -11 -25
-18 -27 -16 -18 17 -66 140 -66 167 0 120 149 183 238 100 26 -25 27 -19 8 42
-45 148 -23 266 75 400 l32 44 29 -34 c16 -19 46 -69 66 -110z m-828 -745 l0
-55 -207 2 -208 3 -3 53 -3 52 210 0 211 0 0 -55z m945 0 l0 -50 -207 -3 -208
-2 0 55 0 55 208 -2 207 -3 0 -50z m-598 -169 c47 -90 57 -199 28 -309 -8 -32
-15 -60 -15 -62 0 -3 16 7 36 20 68 46 160 25 204 -47 28 -46 25 -80 -12 -162
-37 -82 -39 -85 -45 -68 -7 18 -57 42 -88 42 -37 0 -78 -24 -95 -54 -13 -25
-18 -26 -91 -26 -76 0 -77 0 -117 40 -33 33 -46 40 -80 40 -28 0 -49 -7 -70
-25 l-29 -24 -32 68 c-18 39 -31 84 -31 107 0 109 129 172 222 109 l37 -25
-16 53 c-9 30 -17 90 -17 142 -1 81 2 96 30 155 17 36 46 85 64 109 l32 43 35
-48 c19 -27 41 -62 50 -78z m-407 44 c20 -28 20 -30 3 -36 -56 -18 -81 -32
-114 -61 l-36 -33 -36 34 c-20 19 -54 40 -74 46 -55 18 -60 26 -33 55 23 24
28 25 146 25 l123 0 21 -30z m945 0 c21 -22 25 -31 14 -34 -8 -2 -30 -9 -50
-15 -19 -6 -53 -27 -74 -46 l-38 -35 -36 33 c-32 29 -58 43 -114 61 -17 6 -17
8 3 36 l21 30 123 0 122 0 29 -30z m-415 -810 l0 -50 -210 0 -210 0 0 50 0 50
210 0 210 0 0 -50z m-56 -125 c9 -13 16 -26 16 -28 0 -2 -18 -9 -41 -16 -23
-7 -60 -30 -83 -51 l-43 -39 -33 34 c-19 19 -54 42 -79 52 -25 9 -47 18 -49
19 -2 1 4 14 13 28 17 26 18 26 150 26 130 0 133 -1 149 -25z"/>
<path d="M6363 14093 c4 -1631 2 -1572 52 -1832 38 -199 125 -446 221 -632 46
-89 182 -301 228 -354 l25 -30 1 2188 0 2187 -265 0 -266 0 4 -1527z"/>
<path d="M7330 13213 l1 -2408 77 -56 c134 -98 410 -269 434 -269 4 0 8 1157
8 2570 l0 2570 -260 0 -260 0 0 -2407z"/>
<path d="M8280 12971 l0 -2649 66 -8 c72 -7 391 1 437 12 l27 6 0 2644 0 2644
-265 0 -265 0 0 -2649z"/>
<path d="M9240 13040 l0 -2580 24 10 c93 35 269 136 408 234 l88 61 0 1848 0
1849 -41 46 c-66 75 -176 247 -229 356 -104 218 -155 407 -185 699 -6 55 -7
57 -36 57 l-29 0 0 -2580z"/>
<path d="M12277 15528 c-7 -110 -38 -273 -71 -380 l-24 -78 262 0 261 0 29 55
c38 73 121 148 194 175 77 30 203 25 277 -10 66 -32 146 -113 171 -172 l19
-48 411 0 411 0 23 50 c30 64 100 134 170 168 49 24 66 27 155 27 95 0 103 -2
163 -34 75 -41 125 -94 161 -170 22 -48 26 -70 26 -146 0 -82 -3 -97 -33 -157
-38 -77 -110 -148 -177 -174 l-45 -17 0 -498 0 -498 53 -25 c68 -32 140 -105
175 -176 24 -48 27 -66 27 -150 -1 -76 -5 -105 -23 -143 -30 -65 -111 -148
-176 -180 l-54 -27 -4 -287 c-4 -252 -7 -301 -27 -391 -12 -57 -28 -119 -35
-139 -12 -36 -11 -38 34 -98 88 -117 102 -254 40 -382 -71 -145 -248 -230
-395 -191 l-50 14 -78 -71 c-197 -177 -445 -315 -669 -373 -70 -19 -72 -20
-84 -60 -76 -259 -402 -342 -593 -151 -45 45 -84 113 -95 165 -6 28 -12 32
-64 44 -129 28 -336 122 -480 218 -76 50 -229 176 -259 214 -12 13 -19 13 -70
0 -112 -29 -238 11 -330 104 -69 71 -97 142 -97 249 0 66 4 90 27 140 16 33
42 75 59 92 l32 33 -27 107 c-43 173 -49 223 -54 503 l-5 266 -45 18 c-59 24
-143 108 -172 171 -45 96 -45 220 0 313 31 63 113 144 171 168 l48 19 0 267 0
267 -82 -39 c-116 -54 -227 -88 -343 -106 -55 -9 -110 -18 -122 -20 l-23 -4 0
-669 c0 -385 4 -713 10 -772 33 -329 125 -656 265 -944 335 -687 904 -1128
1620 -1258 160 -29 539 -31 679 -5 175 34 536 235 826 459 122 94 331 298 425
414 267 329 441 727 509 1160 33 211 36 370 36 1813 l0 1442 -1478 0 -1479 0
-6 -92z"/>
<path d="M12961 15138 c-133 -65 -137 -267 -7 -343 47 -27 122 -34 173 -14 65
24 122 109 123 182 1 146 -156 241 -289 175z"/>
<path d="M14469 15137 c-111 -59 -136 -213 -50 -311 43 -49 149 -71 218 -45
65 24 122 109 123 182 1 148 -159 243 -291 174z"/>
<path d="M12085 14841 c-3 -11 -31 -61 -61 -111 -49 -81 -54 -94 -41 -108 17
-21 835 -952 852 -970 10 -11 21 -11 64 4 l51 19 0 471 0 471 -51 23 c-64 31
-138 105 -169 169 l-23 51 -308 0 c-295 0 -308 -1 -314 -19z"/>
<path d="M13376 14812 c-26 -63 -117 -153 -178 -177 l-48 -18 0 -467 0 -466
54 -23 55 -22 34 38 c19 21 244 276 500 567 l466 528 -22 44 -21 44 -410 0
-411 0 -19 -48z"/>
<path d="M13913 14073 c-274 -311 -497 -570 -496 -577 1 -6 12 -37 25 -68 l23
-58 376 0 376 0 18 48 c24 61 114 152 177 178 l48 19 0 501 0 501 -25 11 c-23
11 -41 -8 -522 -555z"/>
<path d="M11738 14375 l-98 -95 0 -330 0 -329 55 -26 c69 -33 136 -100 170
-170 l27 -55 377 0 377 0 28 65 28 64 -429 486 c-235 267 -430 485 -433 485
-3 -1 -49 -43 -102 -95z"/>
<path d="M10200 12675 c0 -795 2 -1445 4 -1445 2 0 36 46 74 103 228 335 370
715 428 1148 14 102 17 249 21 811 l5 687 -33 5 c-19 3 -70 10 -114 17 -101
14 -226 50 -312 89 -36 17 -67 30 -69 30 -2 0 -4 -650 -4 -1445z"/>
<path d="M13000 13501 c-107 -35 -180 -128 -180 -231 0 -82 55 -172 129 -210
118 -60 258 -15 317 102 23 44 26 61 22 124 -3 61 -8 79 -33 116 -57 80 -174
126 -255 99z"/>
<path d="M11477 13456 c-177 -65 -165 -328 16 -377 162 -43 304 133 225 281
-47 88 -152 129 -241 96z"/>
<path d="M14490 13455 c-57 -26 -99 -74 -116 -132 -21 -74 -1 -145 55 -196 67
-60 136 -71 218 -33 76 36 108 88 108 177 0 59 -4 73 -30 110 -53 74 -159 108
-235 74z"/>
<path d="M11865 13115 c-34 -71 -101 -137 -172 -170 l-56 -27 6 -252 c6 -247
18 -356 52 -473 l16 -53 58 0 c32 0 78 -7 102 -15 23 -9 46 -12 50 -8 4 5 185
210 402 456 l394 448 -28 57 c-16 31 -31 65 -33 75 -5 16 -32 17 -385 17
l-379 0 -27 -55z"/>
<path d="M13460 13157 c0 -8 -14 -42 -31 -76 -27 -53 -29 -64 -17 -79 10 -13
732 -835 772 -879 9 -10 22 -9 60 2 27 8 73 15 101 15 l53 0 21 88 c33 135 40
218 41 467 l0 230 -48 19 c-63 26 -153 117 -177 179 l-18 47 -378 0 c-310 0
-379 -2 -379 -13z"/>
<path d="M12574 12553 c-164 -186 -345 -391 -402 -456 l-104 -117 23 -58 c19
-45 24 -75 24 -142 0 -76 -4 -93 -31 -148 l-31 -63 70 -65 c90 -83 208 -162
328 -218 88 -42 237 -96 263 -96 6 0 20 16 30 35 27 49 108 122 161 146 l45
20 0 738 0 739 -24 6 c-13 3 -31 8 -39 12 -10 4 -106 -97 -313 -333z"/>
<path d="M13190 12875 l-35 -13 -3 -734 -2 -734 54 -26 c69 -34 120 -79 153
-135 25 -43 27 -44 62 -38 78 15 282 103 375 163 68 44 158 113 213 165 l51
48 -18 32 c-55 96 -62 222 -17 321 l24 51 -401 454 c-221 250 -406 455 -411
456 -6 2 -26 -3 -45 -10z"/>
<path d="M10787 12160 c-3 -8 -21 -70 -41 -137 -258 -881 -939 -1592 -1717
-1792 -125 -32 -309 -61 -391 -61 -28 0 -49 -2 -47 -5 9 -8 229 -72 376 -109
385 -97 784 -159 1268 -198 210 -17 937 -17 1155 0 557 43 1011 120 1459 246
90 26 170 50 178 54 7 4 -44 13 -115 20 -653 63 -1231 389 -1630 921 -202 269
-366 609 -456 949 -19 70 -36 120 -39 112z m70 -999 c12 -17 23 -37 25 -42 2
-6 25 1 55 15 64 32 77 33 69 4 -23 -80 -22 -84 35 -113 122 -60 190 -168 191
-301 0 -65 -4 -85 -31 -139 -52 -104 -155 -176 -289 -198 l-63 -11 7 -36 c4
-19 12 -66 18 -104 l11 -69 48 41 c112 97 221 154 330 173 95 16 259 7 375
-21 l92 -22 -92 -59 c-51 -33 -122 -74 -158 -92 l-65 -32 -245 -1 c-338 -1
-300 6 -300 -56 0 -81 -6 -93 -53 -105 -23 -7 -49 -14 -58 -18 -14 -5 -13 5 7
76 29 98 30 112 7 105 -94 -29 -296 -35 -402 -11 -80 19 -199 83 -278 152 -31
26 -73 62 -94 79 l-38 31 82 6 c278 22 382 -5 640 -167 l102 -65 3 77 c4 114
3 116 -71 129 -188 32 -327 175 -327 337 0 148 95 291 207 312 18 3 33 10 33
15 0 4 -13 24 -30 42 -16 19 -30 37 -30 41 0 15 88 4 120 -15 27 -17 35 -18
39 -8 7 24 80 91 93 87 7 -3 23 -19 35 -37z"/>
<path d="M10786 10985 c-40 -52 -75 -135 -87 -204 -19 -108 18 -246 90 -331
l29 -35 26 24 c36 33 82 129 97 199 14 71 6 162 -21 233 -21 55 -83 149 -99
149 -5 0 -21 -16 -35 -35z"/>
<path d="M11669 11957 c-119 -63 -140 -216 -44 -313 133 -133 359 -16 330 172
-19 129 -169 203 -286 141z"/>
<path d="M14260 11958 c-120 -64 -142 -217 -45 -314 54 -53 113 -69 189 -49
90 23 157 124 142 213 -22 136 -168 212 -286 150z"/>
<path d="M12961 11218 c-133 -65 -137 -267 -7 -343 47 -27 122 -34 173 -14 65
24 122 109 123 182 1 146 -156 241 -289 175z"/>
<path d="M4615 17938 c-2 -7 -25 -71 -49 -143 -25 -71 -56 -157 -69 -189 l-24
-59 -26 44 c-55 97 -144 266 -157 296 -14 36 -12 36 -166 17 l-42 -5 108 -182
c59 -100 129 -224 156 -274 l49 -93 40 0 c22 0 45 4 51 8 5 4 32 66 59 137 26
72 78 203 115 293 l68 162 -55 0 c-34 0 -55 -5 -58 -12z"/>
<path d="M5019 17937 c-91 -26 -139 -83 -139 -167 0 -75 33 -116 145 -176 90
-48 115 -71 115 -105 0 -90 -173 -92 -215 -3 -23 48 -43 40 -68 -24 -20 -52
-20 -53 -1 -67 34 -24 107 -40 189 -40 135 0 222 57 240 157 15 81 -39 142
-204 230 -55 30 -72 62 -53 103 23 50 133 40 174 -16 12 -16 28 -29 35 -29 11
0 53 68 53 85 0 3 -24 17 -52 30 -66 30 -158 39 -219 22z"/>
<path d="M3667 17815 c-32 -7 -60 -15 -62 -17 -5 -5 115 -541 124 -549 5 -6
327 61 368 75 8 4 8 15 1 45 -6 23 -13 41 -17 41 -4 0 -45 -11 -92 -25 -46
-13 -91 -25 -101 -25 -17 0 -25 29 -95 342 -32 144 -22 135 -126 113z"/>
<path d="M3210 17686 c-83 -30 -234 -88 -239 -92 -4 -3 210 -534 215 -534 6 0
135 49 144 55 4 3 -12 55 -36 116 -25 61 -44 113 -42 114 2 1 30 16 64 33 111
56 154 106 154 182 0 132 -103 183 -260 126z m45 -78 c47 -21 70 -100 45 -149
-10 -18 -68 -54 -75 -47 -7 6 -75 169 -75 178 0 8 45 28 67 29 7 1 24 -4 38
-11z"/>
<path d="M16508 17953 c-35 -4 -38 -7 -48 -46 -17 -67 -90 -326 -99 -349 -6
-18 -23 3 -104 129 -53 83 -102 162 -108 177 -14 30 -34 32 -141 13 l-67 -12
175 -260 175 -260 45 2 c25 1 48 3 50 5 2 3 22 65 43 139 32 107 125 396 148
457 3 7 -2 11 -13 10 -11 -1 -36 -3 -56 -5z"/>
<path d="M16737 17808 c-4 -79 -7 -206 -7 -284 l0 -141 143 -6 c78 -4 166 -7
195 -7 l52 0 0 46 0 46 -111 -3 -110 -4 0 185 c1 102 4 213 8 248 l6 62 -85 0
-85 0 -6 -142z"/>
<path d="M17146 17909 c-12 -60 -13 -59 84 -59 87 0 90 -1 89 -22 0 -13 -10
-125 -22 -250 l-22 -226 78 -7 c43 -4 80 -5 83 -2 3 3 16 111 28 241 13 130
26 239 29 243 4 3 42 -1 86 -9 l79 -14 6 39 c4 22 4 42 1 46 -6 5 -427 49
-486 50 -22 1 -28 -5 -33 -30z"/>
<path d="M17737 17573 c-37 -152 -65 -278 -63 -281 3 -2 39 -12 80 -22 l76
-17 9 36 c6 20 17 65 26 101 9 36 18 72 21 80 4 8 29 -44 58 -120 l53 -135 93
-23 c51 -13 94 -21 96 -19 2 2 -25 70 -61 150 -36 80 -65 151 -65 157 0 5 10
10 23 10 12 0 41 9 64 20 110 50 110 196 0 249 -30 15 -316 91 -340 91 -2 0
-33 -124 -70 -277z m293 147 c21 -15 25 -25 25 -70 -1 -45 -5 -56 -29 -76 -29
-25 -99 -34 -111 -13 -4 5 3 50 15 100 22 87 23 89 49 83 14 -3 37 -14 51 -24z"/>
<path d="M18493 17353 c-144 -104 -262 -191 -262 -194 -1 -3 21 -16 48 -29
l50 -23 53 44 c29 25 60 50 70 57 13 11 32 5 113 -35 l97 -48 -6 -50 c-4 -27
-9 -68 -12 -90 l-6 -40 83 -43 c45 -23 83 -41 85 -40 3 4 24 492 24 576 0 68
0 68 -35 85 -20 9 -37 17 -38 17 -2 0 -120 -84 -264 -187z m177 -52 c0 -94 -2
-95 -72 -60 l-60 30 59 44 c32 25 61 45 66 45 4 0 7 -27 7 -59z"/>
<path d="M10551 8309 c-866 -91 -1636 -678 -1959 -1495 -123 -308 -168 -579
-159 -939 10 -362 77 -642 232 -960 343 -706 1005 -1193 1788 -1317 198 -31
502 -31 697 1 256 41 455 104 685 216 482 234 867 619 1100 1100 162 334 235
654 235 1036 0 218 -19 375 -70 576 -246 967 -1074 1681 -2069 1782 -120 13
-359 12 -480 0z m-335 -1108 c156 -18 252 -72 308 -171 29 -52 31 -60 31 -165
0 -90 -4 -118 -21 -155 -24 -53 -72 -103 -120 -128 l-34 -18 115 -177 115
-178 -152 3 -151 3 -91 155 -91 155 -188 3 -187 2 0 -160 0 -160 -125 0 -125
0 0 500 0 500 323 0 c177 -1 354 -5 393 -9z m1959 -101 l0 -105 -382 -3 -383
-2 0 -95 0 -95 345 0 345 0 0 -100 0 -100 -345 0 -345 0 0 -195 0 -195 -130 0
-130 0 0 500 0 500 513 -2 512 -3 0 -105z m-1605 -1525 l0 -105 -405 0 -405 0
0 -85 0 -85 355 0 355 0 0 -105 0 -105 -355 0 -355 0 0 -95 0 -95 410 0 410 0
0 -105 0 -105 -540 0 -540 0 0 495 0 495 535 0 535 0 0 -105z m1610 0 l0 -105
-385 0 -385 0 0 -95 0 -95 345 0 345 0 0 -100 0 -100 -345 0 -345 0 0 -195 0
-195 -130 0 -130 0 0 495 0 495 515 0 515 0 0 -105z"/>
<path d="M9750 6865 l0 -125 208 0 c229 1 284 8 325 47 22 22 27 35 27 78 0
31 -6 60 -16 74 -32 45 -66 51 -314 51 l-230 0 0 -125z"/>
<path d="M14513 6423 c-80 -119 -110 -237 -100 -388 8 -116 28 -191 76 -290
71 -145 201 -261 345 -307 l68 -23 20 25 c36 43 88 163 104 240 20 94 23 277
5 350 -39 159 -160 303 -322 383 -52 26 -111 50 -130 53 -32 5 -36 2 -66 -43z"/>
<path d="M15617 6450 c-20 -17 -49 -57 -64 -88 -24 -49 -28 -69 -28 -142 0
-101 27 -170 96 -245 55 -60 105 -85 167 -85 45 0 58 7 158 76 150 104 140 90
115 167 -28 83 -85 172 -142 221 -47 40 -185 112 -235 122 -26 5 -38 0 -67
-26z"/>
<path d="M6610 6439 c-64 -63 -85 -116 -85 -224 0 -76 4 -99 26 -145 52 -111
142 -183 229 -184 44 -1 58 6 166 81 116 80 119 82 118 118 -1 20 -19 72 -42
119 -54 108 -113 164 -235 221 -133 62 -128 62 -177 14z"/>
</g>
</svg>
