<?xml version="1.0" standalone="no"?>
<!DOCTYPE svg PUBLIC "-//W3C//DTD SVG 20010904//EN"
 "http://www.w3.org/TR/2001/REC-SVG-20010904/DTD/svg10.dtd">
<svg version="1.0" xmlns="http://www.w3.org/2000/svg"
 width="1016.000000pt" height="1129.000000pt" viewBox="0 0 1016.000000 1129.000000"
 preserveAspectRatio="xMidYMid meet">

<g transform="translate(0.000000,1129.000000) scale(0.100000,-0.100000)"
fill="#000000" stroke="none">
<path d="M5045 10565 c-37 -17 -151 -61 -185 -70 -14 -4 -29 -11 -35 -15 -5
-5 -36 -16 -68 -25 -32 -9 -70 -23 -85 -31 -15 -8 -34 -14 -42 -14 -8 0 -27
-6 -41 -14 -14 -7 -50 -19 -80 -26 -30 -7 -58 -16 -64 -20 -5 -4 -44 -17 -85
-29 -41 -12 -106 -31 -145 -42 -77 -23 -177 -50 -270 -74 -33 -9 -82 -22 -110
-29 -27 -8 -79 -20 -115 -26 -36 -7 -72 -15 -80 -18 -23 -9 -181 -40 -309 -62
-63 -11 -121 -22 -130 -25 -20 -8 -267 -42 -436 -60 -71 -8 -177 -20 -235 -27
-143 -18 -901 -18 -1020 0 -47 7 -148 19 -225 27 -171 17 -416 50 -476 64 -24
5 -58 12 -75 15 l-32 5 5 -102 c2 -56 8 -187 13 -292 5 -104 16 -347 24 -540
8 -192 20 -411 26 -485 5 -74 15 -268 20 -430 6 -162 15 -365 21 -450 5 -85
16 -310 24 -500 8 -190 19 -433 25 -540 6 -107 17 -358 24 -556 7 -199 17
-367 20 -373 5 -8 202 -11 693 -11 l685 0 -8 28 c-11 39 -9 66 15 172 12 57
21 131 21 185 0 150 54 462 95 552 8 17 15 35 15 40 0 4 9 26 21 48 91 172
187 252 344 287 87 19 183 76 262 156 40 41 73 80 73 88 0 8 4 14 8 14 9 0 94
166 107 208 6 21 5 22 -12 14 -10 -6 -37 -28 -59 -49 -60 -55 -219 -190 -270
-228 -14 -11 -34 -27 -43 -35 -9 -8 -26 -22 -38 -30 -12 -8 -49 -35 -84 -59
-35 -24 -68 -48 -73 -52 -66 -55 -406 -239 -441 -239 -4 0 -21 -7 -38 -15 -40
-18 -141 -44 -227 -57 -89 -14 -396 -6 -412 10 -6 6 -18 12 -25 12 -27 0 -125
43 -175 77 -104 70 -166 153 -209 280 -44 130 -26 326 39 433 30 48 97 111
141 131 96 42 215 14 267 -64 26 -38 29 -49 27 -127 0 -50 -8 -103 -17 -129
-32 -86 -11 -140 67 -176 42 -20 181 -24 213 -7 11 6 46 23 79 37 51 23 129
68 145 85 3 3 23 17 45 31 22 14 51 36 65 47 14 12 54 45 90 74 150 122 228
196 625 592 301 300 505 486 535 486 5 0 15 6 22 13 20 20 176 97 230 113 25
8 59 21 75 29 15 8 32 15 36 15 5 0 23 7 40 14 40 18 130 44 222 62 39 8 93
19 120 25 150 31 722 36 1050 9 55 -4 200 -14 322 -21 l223 -12 132 32 c73 18
142 37 153 42 19 8 49 16 225 59 41 10 90 23 108 29 18 5 85 15 150 21 64 6
149 16 189 22 66 10 74 14 104 51 l32 40 -21 66 c-45 137 -62 206 -62 243 0
82 96 211 167 224 97 18 195 -18 295 -109 45 -42 67 -41 264 5 54 12 66 11
316 -28 102 -16 123 -17 169 -5 51 13 128 46 179 77 42 25 116 13 153 -25 29
-29 32 -37 32 -97 0 -36 -5 -68 -10 -72 -6 -4 -18 -23 -28 -42 -10 -19 -27
-52 -38 -72 -18 -33 -19 -43 -9 -100 7 -35 15 -67 20 -73 14 -17 60 -164 60
-191 0 -31 -42 -113 -69 -136 -17 -14 -21 -29 -21 -74 0 -46 -5 -62 -26 -87
-36 -43 -92 -81 -141 -95 -24 -7 -43 -17 -43 -23 0 -5 11 -31 25 -57 32 -59
32 -97 0 -157 -33 -61 -146 -170 -192 -186 -22 -7 -60 -9 -99 -5 l-63 6 -5
-52 c-2 -29 -10 -120 -16 -203 -17 -241 -37 -420 -47 -441 -6 -10 -16 -43 -23
-71 -6 -29 -15 -53 -19 -53 -4 0 -13 -17 -20 -37 -8 -21 -20 -43 -27 -51 -8
-7 -16 -23 -18 -35 -12 -66 -30 -339 -33 -522 -4 -199 -3 -216 21 -312 14 -56
36 -120 50 -142 22 -34 35 -43 83 -56 32 -9 69 -20 83 -25 14 -4 40 -11 58
-14 54 -9 106 -58 137 -127 25 -56 27 -70 22 -136 l-5 -73 663 0 664 0 5 33
c3 17 10 219 16 447 6 228 15 480 20 560 5 80 14 334 20 565 6 231 15 474 20
540 5 66 14 307 20 535 6 228 15 471 20 540 11 146 36 1018 29 1024 -2 2 -67
-5 -144 -15 -77 -11 -210 -26 -295 -34 -85 -8 -191 -19 -235 -25 -120 -17
-791 -24 -975 -11 -271 20 -777 80 -820 97 -8 3 -64 14 -125 24 -202 34 -472
95 -745 169 -41 11 -102 27 -135 36 -33 9 -69 20 -80 25 -11 5 -49 16 -83 25
-35 9 -71 20 -80 25 -10 5 -64 23 -122 41 -58 18 -109 35 -115 39 -5 4 -30 12
-55 19 -48 13 -135 44 -185 66 -16 8 -47 19 -68 25 -22 7 -51 18 -65 26 -34
17 -49 17 -87 -1z"/>
<path d="M6968 9602 c-40 -26 -85 -88 -92 -126 -7 -38 6 -108 29 -152 8 -16
15 -36 15 -44 0 -8 10 -45 22 -83 l22 -67 -22 -20 c-12 -12 -22 -24 -22 -29 0
-14 -60 -72 -86 -81 -14 -6 -87 -15 -162 -20 -138 -11 -244 -30 -382 -69 -137
-39 -224 -63 -300 -83 -41 -10 -84 -23 -95 -29 -41 -20 -132 -27 -240 -18 -60
4 -168 13 -240 19 -370 29 -1083 35 -1215 10 -124 -24 -197 -41 -215 -49 -11
-5 -45 -17 -75 -27 -30 -9 -59 -20 -65 -24 -5 -3 -46 -19 -90 -35 -113 -40
-256 -116 -340 -180 -70 -54 -141 -120 -395 -373 -384 -383 -542 -533 -654
-627 -27 -22 -56 -47 -65 -55 -41 -36 -107 -85 -169 -126 -37 -24 -71 -47 -77
-52 -21 -16 -122 -61 -165 -73 -59 -16 -195 -15 -245 1 -101 33 -155 101 -155
194 0 29 4 56 9 62 16 16 30 117 22 159 -4 24 -19 52 -36 69 -24 24 -37 29
-80 29 -83 0 -161 -66 -187 -158 -6 -22 -16 -46 -21 -52 -14 -19 -13 -241 1
-255 7 -7 12 -20 12 -29 0 -27 56 -125 92 -161 116 -116 270 -168 498 -168
148 0 304 30 415 79 117 52 309 155 333 177 6 7 21 16 32 19 11 3 20 10 20 15
0 5 9 11 19 15 11 3 37 19 58 35 52 41 52 41 108 79 28 19 57 42 67 50 9 9 28
25 43 36 14 11 34 27 44 35 9 8 59 51 111 95 99 84 186 163 255 230 22 22 49
47 59 55 18 14 18 12 11 -30 -8 -46 -59 -208 -75 -238 -5 -9 -23 -48 -40 -87
-103 -227 -272 -381 -464 -421 -39 -8 -90 -23 -112 -34 -42 -19 -111 -91 -135
-139 -7 -15 -18 -33 -24 -41 -32 -44 -86 -216 -110 -350 -29 -157 -33 -200
-35 -310 0 -58 -7 -134 -15 -170 -18 -80 -19 -131 -3 -165 l11 -25 345 0 344
0 -7 48 c-18 128 -36 182 -72 217 -20 19 -39 35 -42 35 -4 0 -14 13 -24 29
-27 46 -23 168 8 262 25 75 76 145 129 176 96 57 196 89 386 123 284 52 327
64 470 133 73 36 100 57 195 154 61 61 133 137 160 167 l50 56 55 -3 c32 -2
67 -11 84 -22 28 -18 28 -20 24 -95 -3 -49 -11 -86 -23 -105 -53 -87 -77 -116
-147 -184 -70 -66 -78 -78 -78 -111 0 -31 8 -44 53 -87 54 -52 154 -157 197
-208 102 -122 235 -338 262 -427 6 -21 14 -38 18 -38 4 0 13 -21 20 -47 6 -26
16 -53 22 -60 8 -10 92 -13 366 -13 l355 0 -5 93 c-6 108 -16 134 -65 167 -32
22 -48 25 -182 30 -216 9 -216 9 -294 291 -27 97 -34 188 -18 232 13 33 79 99
121 119 19 10 44 23 55 30 11 7 43 26 70 43 50 30 181 154 212 202 16 23 21
25 70 19 30 -3 61 -11 71 -16 18 -10 152 -38 241 -49 41 -6 60 -14 77 -34 24
-28 104 -160 104 -172 0 -4 7 -21 15 -38 21 -46 51 -135 90 -272 19 -66 39
-129 44 -140 20 -46 93 -254 107 -305 33 -124 48 -166 65 -182 17 -17 50 -18
405 -18 l386 0 -7 82 c-16 180 -62 229 -230 245 -86 9 -83 6 -119 93 -39 93
-54 277 -37 430 13 108 51 238 81 277 18 23 18 22 45 -65 14 -48 30 -96 35
-107 5 -11 14 -38 20 -60 7 -22 18 -54 26 -72 8 -17 14 -36 14 -41 0 -12 51
-145 82 -212 18 -40 83 -180 109 -235 13 -28 48 -149 65 -223 7 -34 21 -74 30
-87 l16 -25 339 0 338 0 8 38 c15 74 8 128 -21 170 -33 48 -71 68 -161 83 -38
6 -74 15 -80 19 -5 4 -23 10 -38 14 -16 4 -33 17 -39 31 -6 14 -15 25 -19 25
-11 0 -55 118 -67 180 -23 114 -24 235 -7 542 14 249 21 318 34 338 30 46 71
134 71 152 0 9 4 19 8 22 26 16 73 423 72 628 0 82 32 176 64 184 12 2 42 -2
68 -9 42 -13 50 -13 85 3 47 21 129 94 149 131 22 44 18 100 -11 140 -43 58
-17 109 65 129 29 7 65 26 90 47 41 35 41 37 39 95 -2 57 -1 60 41 103 41 42
44 49 44 98 -1 29 -8 66 -16 82 -9 17 -21 55 -28 85 -7 30 -16 60 -20 65 -5 6
-11 30 -15 55 -7 48 0 70 40 135 47 74 58 107 49 145 -7 29 -14 36 -38 38 -29
4 -86 -15 -86 -28 0 -4 -45 -22 -100 -40 -90 -29 -108 -31 -171 -25 -39 4 -94
13 -122 21 -29 8 -99 17 -157 20 -96 6 -114 4 -199 -21 -111 -32 -137 -29
-201 23 -62 52 -97 74 -150 94 -56 22 -78 22 -112 0z m103 -93 c12 -6 38 -27
59 -47 60 -58 77 -71 125 -93 48 -23 56 -23 205 7 70 13 102 14 185 6 57 -6
119 -19 145 -30 25 -11 56 -22 70 -23 39 -5 180 24 180 36 0 28 133 96 151 78
5 -5 -9 -28 -31 -52 -45 -48 -48 -62 -20 -89 14 -13 24 -41 31 -88 6 -38 17
-84 26 -102 14 -32 14 -35 -6 -56 -27 -28 -27 -43 0 -51 19 -7 20 -8 3 -26 -9
-11 -14 -22 -11 -25 3 -4 -5 -27 -19 -52 -22 -39 -25 -56 -22 -114 3 -86 -8
-100 -90 -106 -55 -4 -60 -3 -65 19 -11 40 -8 98 6 108 62 51 85 74 90 91 8
32 -19 38 -77 19 -48 -17 -57 -17 -112 -3 -32 8 -69 18 -82 21 -12 3 -29 0
-37 -7 -21 -17 0 -46 51 -71 71 -34 94 -62 94 -113 0 -39 -4 -48 -32 -68 -28
-19 -45 -23 -108 -23 -63 1 -82 5 -122 28 -74 44 -93 85 -62 133 28 41 8 49
-129 50 -157 1 -160 1 -182 18 -18 13 -18 15 -2 39 22 33 21 37 -2 37 -11 0
-27 3 -36 7 -14 5 -11 12 21 39 l39 33 -28 1 c-70 1 -177 -84 -177 -140 0 -17
5 -30 12 -30 26 0 108 -66 118 -94 14 -40 13 -46 -10 -46 -23 0 -43 -34 -35
-59 11 -36 118 -121 177 -140 41 -14 74 -57 84 -112 14 -71 59 -131 115 -151
12 -5 18 -21 21 -53 4 -53 0 -59 -35 -46 -54 21 -111 104 -136 200 -19 73 -36
95 -79 107 -49 13 -47 -12 6 -78 74 -93 152 -262 152 -330 0 -37 15 -54 34
-39 27 23 36 7 14 -27 -22 -35 -72 -67 -88 -57 -13 8 -47 79 -55 115 -7 33
-77 110 -100 110 -9 0 -19 17 -27 47 -9 36 -25 61 -73 109 -76 75 -98 89 -114
70 -9 -11 -4 -23 24 -56 19 -23 35 -48 35 -55 0 -7 17 -28 38 -47 58 -53 79
-88 84 -145 4 -45 48 -149 68 -163 16 -11 42 -76 49 -119 9 -63 36 -68 58 -12
9 23 20 41 25 41 4 0 8 5 8 12 0 16 51 68 67 68 16 0 17 -36 1 -97 -10 -36
-19 -49 -40 -57 -23 -8 -28 -17 -28 -43 0 -17 5 -35 10 -38 17 -10 11 -37 -19
-100 -16 -33 -39 -85 -51 -115 -13 -30 -29 -59 -36 -63 -8 -4 -14 -14 -14 -21
0 -7 -39 -52 -86 -100 -68 -68 -91 -86 -114 -86 -46 0 -76 -16 -99 -53 -22
-36 -86 -69 -161 -84 -34 -6 -34 -6 -20 14 8 12 35 49 59 84 49 70 53 75 97
124 17 19 37 35 44 35 9 0 10 11 6 38 -3 20 -6 44 -5 52 5 114 -6 243 -26 307
-7 23 -35 1 -35 -27 0 -55 -13 -92 -34 -100 -17 -6 -21 -16 -21 -56 0 -49 0
-49 -35 -52 -47 -5 -54 -14 -36 -49 14 -28 14 -32 -5 -51 -11 -12 -32 -24 -47
-27 -45 -10 -57 -21 -63 -56 -3 -19 -9 -40 -13 -47 -10 -17 -41 -15 -56 3 -7
8 -27 15 -45 15 -29 0 -35 4 -45 36 -8 24 -17 34 -28 32 -20 -4 -26 -37 -17
-84 7 -41 29 -64 60 -64 31 0 41 -29 17 -52 -18 -19 -20 -18 -54 16 -45 45
-76 47 -91 7 -10 -28 -12 -28 -34 -14 -18 12 -27 13 -35 5 -17 -17 17 -119 42
-127 25 -8 40 1 40 24 0 10 6 24 14 30 22 18 92 -6 122 -42 26 -31 26 -36 -2
-114 -14 -39 -19 -43 -48 -43 -62 0 -74 -43 -25 -85 l32 -26 -19 -36 c-24 -45
-36 -49 -80 -28 -48 22 -58 11 -59 -66 0 -74 12 -84 65 -55 21 11 41 18 45 15
7 -8 25 -115 25 -155 0 -23 -5 -33 -20 -37 -24 -6 -34 -29 -26 -61 8 -31 35
-41 51 -19 8 10 15 16 17 13 9 -14 58 -168 58 -184 0 -10 -18 -36 -40 -57 -22
-22 -40 -41 -40 -43 0 -3 55 -2 123 1 136 6 235 -7 255 -34 16 -22 15 -74 -1
-98 -16 -21 -37 -13 -37 15 0 10 -4 22 -10 25 -13 8 -66 -21 -74 -40 -10 -27
-68 -15 -84 17 -11 24 -16 26 -39 17 -14 -5 -40 -21 -56 -35 -30 -25 -35 -26
-145 -22 -132 4 -146 12 -158 96 -3 26 -12 61 -19 77 -6 17 -18 55 -25 85 -7
30 -16 60 -20 65 -4 6 -13 33 -20 60 -7 28 -17 55 -21 60 -4 6 -14 38 -23 72
-9 34 -19 69 -22 76 -3 9 3 16 15 20 29 7 26 42 -6 75 -37 37 -73 92 -73 111
0 9 -7 29 -15 45 -8 15 -15 30 -15 32 0 11 22 1 50 -22 28 -24 33 -25 46 -12
22 22 36 92 24 123 -11 29 -11 29 -45 13 -41 -18 -55 4 -27 42 29 39 28 53 -8
94 -37 42 -73 53 -106 31 l-25 -16 28 -49 c31 -55 28 -66 -10 -49 -45 20 -57
93 -31 194 5 22 3 25 -22 25 -16 0 -42 -7 -57 -15 -38 -19 -62 -5 -92 57 l-23
48 24 19 c14 11 30 22 37 24 8 3 6 11 -7 25 -24 27 -15 48 24 57 42 9 56 35
75 143 10 50 21 95 26 98 5 3 9 12 9 20 0 8 16 47 35 88 38 78 38 96 0 116
-14 7 -37 31 -52 54 -15 23 -31 43 -34 46 -3 3 -10 19 -16 35 -11 34 -39 45
-45 18 -2 -10 2 -61 9 -113 22 -173 9 -301 -40 -372 l-24 -36 -29 19 c-57 36
-87 8 -82 -75 4 -48 -13 -56 -43 -22 -29 33 -59 34 -59 2 0 -13 6 -29 14 -35
7 -6 16 -29 19 -51 4 -29 18 -54 51 -91 29 -32 46 -61 46 -76 l0 -25 -87 4
c-64 3 -96 9 -118 23 -40 26 -45 34 -45 76 0 55 -16 63 -113 54 l-84 -7 -53
46 c-30 25 -57 46 -61 46 -17 0 -31 -32 -25 -56 l7 -27 -48 6 c-49 7 -93 41
-93 72 0 7 -12 23 -26 34 -22 17 -35 19 -88 14 -39 -3 -78 -1 -102 7 -34 11
-184 79 -254 114 -14 8 -43 19 -65 26 -22 7 -44 16 -50 20 -17 13 -68 16 -72
4 -2 -7 10 -22 27 -34 39 -28 38 -36 -5 -44 -20 -4 -59 -21 -87 -37 -29 -17
-70 -38 -92 -46 -23 -9 -45 -20 -50 -25 -6 -4 -16 -8 -24 -8 -8 0 -41 -12 -73
-26 -58 -26 -78 -54 -40 -54 52 0 56 -22 18 -97 -22 -41 -106 -122 -134 -130
-26 -6 -44 4 -27 15 16 11 23 37 13 53 -12 20 -138 19 -163 -1 -55 -45 -76
-71 -76 -93 0 -52 7 -57 71 -50 40 4 59 2 59 -5 0 -6 -25 -29 -57 -51 -49 -36
-63 -41 -109 -41 -42 0 -54 -4 -58 -18 -7 -19 -71 -55 -119 -66 -16 -4 -43 -1
-61 5 -43 15 -79 6 -118 -32 -43 -40 -61 -43 -160 -24 -48 9 -98 13 -112 9
-31 -7 -35 -40 -6 -49 27 -8 25 -25 -5 -53 -20 -19 -68 -81 -123 -157 -18 -27
-62 -125 -76 -170 -24 -82 -27 -110 -16 -139 13 -35 -1 -48 -80 -72 -54 -16
-74 -30 -64 -46 3 -4 59 -8 124 -8 110 0 121 -2 144 -23 25 -23 55 -112 42
-125 -4 -3 -16 -1 -26 6 -28 17 -70 15 -70 -3 0 -24 -44 -18 -70 10 -31 33
-56 32 -90 -5 -24 -26 -35 -30 -82 -30 -95 1 -110 31 -109 212 2 226 28 355
86 418 53 57 72 145 39 181 -33 36 17 115 101 159 l40 20 3 -35 c2 -27 10 -39
32 -50 51 -26 117 -12 145 32 15 23 15 28 1 64 -19 46 -19 49 -6 49 15 0 163
91 175 107 9 12 19 10 60 -11 93 -47 130 -13 85 79 -24 51 -25 46 8 83 21 23
38 32 60 32 26 0 31 4 34 27 2 17 12 32 26 39 33 16 33 18 21 53 -13 37 1 101
29 139 l17 22 59 -20 c70 -24 95 -25 141 -6 31 13 35 19 35 53 0 44 -6 55 -37
72 -35 18 -85 13 -128 -14 -59 -36 -57 -41 -39 65 9 57 83 160 115 160 5 0 9
11 9 24 0 13 7 43 15 66 14 39 14 46 0 67 -9 12 -20 23 -25 23 -13 0 -13 35
-1 58 5 9 13 26 17 37 7 19 8 19 11 -2 11 -60 94 -56 167 8 l46 41 0 81 c0
121 -33 171 -87 131 -40 -30 -40 -49 1 -90 l35 -35 -21 -44 c-12 -24 -29 -46
-39 -48 -15 -4 -19 3 -25 39 -4 31 -13 48 -28 56 -11 6 -22 12 -24 13 -1 1 5
21 13 45 18 52 19 47 -4 60 -31 16 -64 -5 -114 -75 -37 -51 -52 -64 -81 -69
-42 -8 -91 -66 -133 -158 -37 -79 -53 -83 -53 -13 0 62 -22 95 -65 95 -33 0
-31 9 10 49 25 25 38 31 47 23 9 -7 24 -6 50 5 38 15 58 50 58 99 0 29 44 54
97 54 56 0 115 42 111 79 -1 16 5 35 14 44 17 17 54 23 60 10 2 -5 19 -21 38
-37 33 -27 38 -28 103 -22 37 3 80 14 94 23 23 15 25 21 19 64 -9 67 13 118
52 119 10 0 13 -13 10 -52 -3 -49 -1 -53 25 -66 35 -17 103 -3 148 30 50 37
39 51 -37 43 -65 -7 -66 -7 -62 16 8 56 135 93 179 53 18 -16 18 -18 -2 -46
-39 -53 19 -71 84 -26 34 24 38 76 7 96 -11 7 -20 19 -20 27 0 12 16 15 85 15
47 0 85 -2 85 -5 0 -2 -11 -21 -25 -41 -38 -56 -29 -94 22 -94 13 0 23 -2 23
-5 0 -3 -21 -32 -46 -64 -39 -51 -44 -62 -35 -80 8 -15 9 -27 1 -40 -5 -11
-10 -43 -10 -71 0 -70 36 -136 94 -173 53 -33 77 -34 113 -3 37 33 23 57 -40
71 -69 15 -82 39 -82 150 0 93 3 102 69 190 7 9 1 20 -18 37 -36 30 -38 74 -6
100 15 12 39 18 76 18 50 0 68 -10 44 -25 -35 -21 6 -40 124 -55 92 -13 137
-2 144 32 3 15 -8 18 -79 20 -55 2 -84 7 -87 16 -6 18 99 15 453 -13 416 -34
427 -35 453 -41 26 -5 29 -34 6 -69 -21 -32 -2 -34 41 -5 23 16 47 20 108 20
62 0 77 3 77 15 0 8 0 18 1 23 0 4 -9 9 -20 12 -33 8 -10 30 35 33 39 2 39 2
42 -36 2 -22 10 -41 18 -44 20 -8 58 4 85 26 l24 19 -28 13 c-35 16 -34 21 6
41 86 46 179 69 191 49 8 -13 89 -31 113 -25 12 4 25 20 33 43 11 36 16 39 86
59 40 12 101 22 134 22 55 0 60 -2 66 -24 l6 -24 42 18 c33 15 50 17 81 10 66
-16 75 -13 75 19 0 16 7 34 15 41 13 11 19 9 38 -7 42 -37 125 -92 131 -86 13
14 4 35 -30 73 -30 33 -36 47 -36 83 1 36 6 46 39 74 21 18 50 35 66 38 33 8
35 22 4 34 -35 13 -46 33 -58 97 -6 32 -15 68 -21 78 -9 17 -7 18 21 13 17 -4
44 -16 60 -28 39 -29 65 -22 69 17 2 24 -6 42 -40 83 -24 29 -53 65 -64 80
-22 27 -40 71 -29 71 3 0 15 -5 26 -11z m-3201 -938 c0 -3 -9 -17 -19 -30 -33
-43 -129 -30 -98 13 20 27 118 41 117 17z m3984 -155 c62 -1 74 4 93 39 10 17
12 15 22 -22 18 -67 12 -73 -89 -73 -49 0 -94 -2 -102 -5 -7 -3 -22 1 -32 8
-15 11 -17 21 -10 62 l7 49 25 -29 c22 -26 31 -29 86 -29z m-4790 -464 c8 -68
41 -112 84 -112 26 0 24 -3 -28 -50 l-55 -50 -29 65 c-26 60 -31 65 -69 72
l-40 8 59 63 c32 34 62 62 65 62 4 0 9 -26 13 -58z m-228 -234 c16 -24 41 -55
56 -70 l27 -27 -48 -40 c-27 -23 -52 -41 -55 -41 -3 0 -6 11 -6 24 0 48 -17
64 -95 90 -17 6 -14 13 33 57 28 27 53 49 56 49 2 0 16 -19 32 -42z m-131
-237 l20 -11 -20 -15 c-11 -8 -26 -19 -33 -26 -10 -8 -22 -7 -48 6 -19 9 -51
19 -70 22 -32 5 -34 4 -34 -24 0 -17 7 -47 16 -68 l15 -38 -33 -29 c-18 -15
-40 -34 -48 -42 -40 -36 -69 -47 -89 -37 -58 32 -124 -1 -137 -68 -8 -41 -52
-70 -149 -99 -102 -30 -138 -35 -179 -23 -29 7 -49 6 -87 -6 -47 -16 -51 -15
-77 3 -15 11 -42 26 -60 33 -46 19 -27 32 28 20 50 -12 118 -6 198 18 41 11
63 13 94 5 26 -7 49 -7 68 0 26 9 68 59 83 100 5 16 43 44 118 90 15 9 45 20
66 24 62 11 76 22 69 54 -5 26 3 36 82 106 48 42 91 83 95 90 6 10 19 2 50
-30 23 -24 51 -48 62 -55z m4679 -358 c7 -22 -8 -79 -20 -76 -5 1 -16 4 -25 8
-34 13 -102 -87 -86 -129 7 -18 52 -22 62 -6 3 6 15 10 25 10 17 0 18 -6 14
-72 -3 -47 -13 -88 -27 -116 l-22 -44 26 -21 c24 -20 27 -31 33 -116 3 -52 13
-130 21 -175 17 -86 63 -254 75 -271 14 -19 20 -64 10 -70 -26 -16 8 -24 79
-18 139 10 263 -26 277 -82 10 -41 -8 -48 -46 -20 -39 29 -50 31 -50 10 0 -30
-39 -36 -210 -33 -210 4 -211 4 -260 173 -12 39 -30 101 -41 139 -16 54 -18
75 -9 99 15 43 14 44 -29 71 -30 19 -40 33 -46 63 -6 31 -3 40 14 54 31 25 27
65 -6 82 -16 8 -40 17 -54 20 -22 6 -29 16 -38 54 -7 27 -19 63 -27 81 -9 19
-16 54 -17 78 0 36 5 50 28 74 22 23 32 27 46 20 22 -12 60 -13 78 -1 17 11
17 67 0 87 -15 18 -18 15 81 73 70 41 121 68 132 70 4 1 9 -7 12 -16z m-2664
-64 l49 -52 53 7 c29 4 79 19 110 33 48 21 66 25 110 19 54 -7 133 -32 156
-49 25 -19 14 -61 -24 -85 -34 -22 -37 -23 -69 -8 -58 28 -75 18 -75 -42 0
-46 -62 -91 -134 -98 -68 -8 -106 -23 -106 -45 0 -10 5 -19 10 -19 6 0 15 -11
22 -24 9 -21 7 -31 -11 -62 -20 -34 -21 -40 -8 -73 27 -69 29 -106 7 -134 -38
-49 -24 -75 51 -91 21 -5 29 -16 44 -62 10 -32 38 -95 62 -142 24 -46 41 -92
38 -101 -5 -15 10 -17 157 -16 205 0 242 -9 268 -68 l19 -42 -30 -3 c-20 -2
-39 5 -60 22 -38 32 -47 32 -59 1 l-10 -25 -185 0 c-216 0 -203 -6 -265 116
-19 38 -37 71 -40 74 -3 3 -20 34 -39 70 -37 71 -121 212 -130 220 -4 3 -19
25 -35 49 -28 44 -28 45 -11 74 18 30 18 31 -6 50 -17 14 -33 17 -59 13 -33
-5 -37 -2 -77 51 -24 31 -43 61 -43 67 0 6 26 39 58 73 31 34 65 72 74 85 l17
23 19 -24 c11 -13 27 -22 37 -20 19 4 74 74 75 94 0 6 -16 28 -35 49 -19 22
-35 40 -35 42 0 6 40 91 46 97 12 11 14 10 64 -44z"/>
<path d="M7526 9205 c-3 -9 -18 -15 -39 -15 -41 0 -61 -18 -44 -40 41 -53 185
-90 219 -56 27 26 -2 70 -67 101 -63 29 -61 29 -69 10z"/>
<path d="M8028 9203 c-67 -42 -56 -102 17 -89 47 9 77 39 73 74 -2 22 -9 27
-33 29 -16 2 -42 -5 -57 -14z"/>
<path d="M6919 8803 c-13 -34 -6 -64 25 -100 13 -15 35 -53 48 -83 19 -41 37
-62 69 -82 42 -27 129 -108 129 -122 0 -10 104 -152 148 -201 l22 -26 0 35 c0
41 -12 77 -37 106 -10 12 -28 34 -40 48 -13 15 -23 37 -23 49 0 12 -6 27 -12
33 -7 5 -42 33 -78 62 -78 65 -106 92 -121 120 -11 20 -9 21 20 15 26 -6 31
-4 31 13 0 21 -33 60 -50 60 -5 0 -28 18 -50 40 -22 22 -40 45 -40 50 0 22
-31 8 -41 -17z"/>
<path d="M6564 8796 c-21 -23 -34 -55 -34 -81 0 -22 4 -26 22 -23 16 2 24 12
29 36 4 19 12 39 18 45 17 17 13 37 -6 37 -10 -1 -23 -6 -29 -14z"/>
<path d="M6825 8790 c-11 -18 4 -59 25 -70 24 -13 33 2 28 47 -2 20 -9 29 -25
31 -11 2 -24 -2 -28 -8z"/>
<path d="M6437 8776 c-20 -16 -20 -67 -1 -73 15 -5 58 63 49 77 -8 14 -26 12
-48 -4z"/>
<path d="M6715 8760 c-8 -14 3 -49 28 -81 15 -21 18 -36 13 -63 -7 -36 6 -76
25 -76 19 0 40 29 46 64 12 75 -81 206 -112 156z"/>
<path d="M6177 8709 c-21 -13 -46 -60 -40 -77 3 -9 16 -11 39 -6 33 6 34 6 34
-28 0 -40 15 -58 48 -58 23 0 24 2 20 50 -3 28 -12 58 -21 68 -8 9 -17 26 -19
37 -4 23 -34 30 -61 14z"/>
<path d="M4542 8678 c-19 -19 -14 -28 16 -28 27 0 52 15 52 32 0 13 -55 9 -68
-4z"/>
<path d="M5092 8674 c-29 -24 -22 -44 21 -64 22 -11 40 -31 57 -68 14 -29 32
-57 40 -62 12 -7 12 -13 1 -34 -20 -37 -7 -75 34 -92 68 -28 115 26 68 79 -13
14 -18 36 -18 78 1 53 -1 59 -20 59 -40 0 -65 12 -65 31 0 16 8 19 54 19 42 0
55 4 60 17 10 25 -20 43 -68 43 -23 0 -64 3 -91 6 -40 5 -55 2 -73 -12z"/>
<path d="M6877 8683 c-15 -15 -5 -44 28 -80 29 -32 35 -35 41 -20 7 19 -11 71
-33 93 -16 15 -26 18 -36 7z"/>
<path d="M6624 8654 c-15 -22 -15 -27 -2 -40 11 -11 21 -12 41 -5 29 11 33 22
17 52 -15 26 -36 24 -56 -7z"/>
<path d="M5375 8656 c-16 -12 -17 -16 -6 -30 7 -9 21 -16 30 -16 49 0 76 -54
47 -95 -7 -11 -16 -33 -20 -50 -4 -16 -18 -40 -32 -53 -47 -47 -26 -112 36
-112 25 0 34 21 56 129 9 47 22 94 29 105 9 14 12 36 8 63 -5 39 -8 43 -51 57
-56 20 -73 20 -97 2z"/>
<path d="M6335 8654 c-26 -26 -1 -78 34 -71 26 4 36 34 21 61 -15 30 -32 33
-55 10z"/>
<path d="M6467 8613 c-4 -3 -7 -16 -7 -28 0 -13 -9 -26 -25 -33 -56 -25 -35
-102 28 -102 29 0 30 0 24 45 -6 37 -3 48 18 73 14 17 25 35 25 41 0 12 -52
15 -63 4z"/>
<path d="M4634 8596 c-26 -20 -10 -34 46 -38 48 -3 48 -3 -8 -46 -19 -14 -23
-29 -27 -84 -4 -56 -2 -68 11 -68 25 0 26 -24 5 -85 -23 -66 -15 -85 37 -85
56 0 66 86 21 189 -10 24 -19 48 -19 54 0 5 20 32 45 58 52 56 61 102 23 113
-41 11 -114 6 -134 -8z"/>
<path d="M4935 8598 c-30 -18 -57 -56 -84 -117 -19 -45 -24 -73 -24 -147 0
-50 3 -97 7 -103 8 -13 124 -15 144 -2 23 14 9 45 -30 64 -38 19 -38 19 -38
81 0 54 4 69 30 104 32 45 53 51 88 26 29 -20 42 -11 42 31 0 59 -78 96 -135
63z"/>
<path d="M6053 8595 c-24 -17 -43 -71 -43 -121 0 -26 10 -40 56 -78 63 -51 78
-55 94 -25 14 26 1 68 -36 112 -20 23 -24 38 -20 60 6 28 -7 67 -22 67 -4 0
-17 -7 -29 -15z"/>
<path d="M5380 8550 c0 -11 7 -20 15 -20 8 0 15 9 15 20 0 11 -7 20 -15 20 -8
0 -15 -9 -15 -20z"/>
<path d="M6570 8548 c-24 -26 -26 -63 -4 -86 15 -15 18 -14 40 12 26 30 29 47
14 77 -14 25 -25 24 -50 -3z"/>
<path d="M5752 8548 c-20 -20 -14 -38 14 -38 36 0 64 17 58 35 -7 18 -55 20
-72 3z"/>
<path d="M6970 8518 c0 -18 3 -43 6 -55 7 -24 60 -51 74 -37 14 14 -8 84 -33
105 -33 28 -47 23 -47 -13z"/>
<path d="M4255 8529 c-62 -18 -77 -79 -19 -79 34 0 35 -12 6 -56 -71 -105
-120 -144 -181 -144 -37 0 -60 19 -67 56 -8 44 19 69 84 78 41 5 55 12 72 35
23 33 27 81 6 81 -7 0 -31 -12 -52 -26 -33 -23 -43 -25 -68 -16 -30 12 -70 -1
-93 -30 -20 -26 -35 -91 -35 -154 1 -105 0 -104 97 -104 118 0 154 17 177 80
7 22 23 37 57 53 57 27 74 59 79 151 3 50 1 71 -9 77 -16 10 -15 10 -54 -2z"/>
<path d="M4546 8515 c-17 -18 -13 -35 9 -35 16 0 29 30 17 42 -6 6 -16 3 -26
-7z"/>
<path d="M5628 8498 c-14 -13 -36 -47 -48 -76 l-23 -53 23 -24 c28 -30 75 -33
108 -6 24 21 29 50 10 70 -7 6 -13 33 -13 59 0 55 -18 65 -57 30z"/>
<path d="M6282 8480 c-18 -11 -32 -23 -33 -27 -6 -83 -5 -144 2 -149 24 -15
56 6 67 44 14 45 16 138 4 146 -5 3 -23 -4 -40 -14z"/>
<path d="M6710 8461 c0 -39 9 -61 25 -61 19 0 27 33 16 64 -14 36 -41 34 -41
-3z"/>
<path d="M6840 8464 c-19 -48 -8 -100 22 -110 36 -11 49 40 27 105 -13 38 -36
40 -49 5z"/>
<path d="M5843 8437 c-31 -12 -64 -46 -76 -78 -8 -24 12 -39 54 -39 68 0 146
104 93 124 -21 8 -33 7 -71 -7z"/>
<path d="M4508 8429 c-40 -23 -8 -70 33 -49 23 13 25 46 3 54 -19 7 -15 8 -36
-5z"/>
<path d="M5074 8428 c-12 -5 -31 -35 -44 -65 -24 -59 -20 -73 25 -73 43 0 92
102 64 136 -13 16 -16 16 -45 2z"/>
<path d="M6421 8401 c-18 -18 -22 -30 -17 -54 8 -37 20 -47 64 -47 30 0 33 2
26 23 -3 12 -12 29 -20 37 -7 9 -17 26 -22 39 l-9 24 -22 -22z"/>
<path d="M6576 8403 c-5 -12 2 -25 22 -43 16 -14 32 -33 35 -42 14 -40 52 -4
43 39 -4 17 -19 35 -37 46 -39 22 -55 22 -63 0z"/>
<path d="M4112 8368 c-19 -19 -15 -58 6 -58 20 0 46 45 37 61 -8 13 -29 11
-43 -3z"/>
<path d="M6977 8373 c-12 -11 -8 -44 9 -76 9 -18 20 -39 24 -47 8 -17 56 -37
66 -27 4 4 1 13 -5 21 -7 8 -14 34 -15 57 -3 30 -10 47 -27 60 -25 20 -41 23
-52 12z"/>
<path d="M6747 8343 c-4 -3 -7 -19 -7 -35 0 -32 -37 -118 -51 -118 -16 0 -10
-49 8 -70 10 -11 28 -20 42 -20 22 0 23 3 18 36 -6 34 -5 36 18 32 19 -4 27 1
40 27 21 45 19 81 -6 121 -19 31 -46 43 -62 27z"/>
<path d="M5976 8275 c-33 -30 -48 -77 -36 -109 5 -13 4 -29 -1 -37 -17 -27 -9
-65 19 -92 52 -50 85 -27 62 44 -11 33 -11 44 1 67 8 15 18 30 23 33 16 12 20
100 5 110 -24 15 -45 10 -73 -16z"/>
<path d="M6550 8275 c-10 -13 -8 -22 15 -55 40 -58 85 -51 63 10 -10 27 -41
60 -56 60 -5 0 -15 -7 -22 -15z"/>
<path d="M5191 8260 c-47 -20 -67 -74 -37 -99 11 -9 30 -9 84 2 39 8 75 18 81
21 16 10 13 52 -4 66 -20 17 -94 22 -124 10z"/>
<path d="M4253 8224 c-18 -20 -33 -40 -33 -45 0 -5 -17 -19 -38 -33 -30 -19
-41 -35 -55 -78 -22 -69 -22 -98 -1 -98 9 0 32 -13 51 -30 37 -33 52 -37 71
-18 18 18 15 52 -8 81 -11 14 -20 40 -20 60 0 40 26 75 43 58 6 -6 25 -11 43
-11 58 0 60 -3 52 -78 -22 -189 -22 -178 2 -195 22 -15 24 -14 47 20 17 26 22
43 18 63 -4 18 0 40 9 59 27 51 21 88 -23 131 -21 21 -48 59 -61 84 -18 38
-46 67 -62 66 -2 0 -18 -17 -35 -36z"/>
<path d="M6357 8239 c-18 -20 -18 -22 -1 -40 26 -28 78 -22 82 9 7 49 -48 70
-81 31z"/>
<path d="M5558 8225 c-20 -14 -42 -34 -48 -45 -15 -27 -21 -162 -8 -177 14
-18 49 -16 76 3 27 19 28 38 1 75 -23 33 -18 49 17 49 28 0 84 51 84 77 0 22
-30 42 -60 42 -14 0 -42 -11 -62 -24z"/>
<path d="M6180 8235 c-11 -13 -10 -26 0 -72 l14 -56 -35 -31 c-19 -17 -45 -40
-59 -51 -34 -27 -63 -74 -56 -91 9 -22 68 -17 104 10 44 32 100 105 133 174
30 64 26 79 -30 113 -38 23 -55 24 -71 4z"/>
<path d="M5748 8219 c-12 -7 -18 -22 -18 -48 0 -39 16 -61 54 -75 44 -15 71
51 44 109 -12 27 -48 33 -80 14z"/>
<path d="M6861 8187 c-13 -44 -2 -97 19 -97 21 0 50 41 50 71 0 76 -50 96 -69
26z"/>
<path d="M6088 8189 c-10 -6 -18 -17 -18 -24 0 -20 39 -19 47 1 8 22 -8 35
-29 23z"/>
<path d="M5060 8183 c-19 -8 -51 -40 -74 -76 -17 -28 -17 -30 7 -80 14 -29 36
-65 51 -80 14 -15 26 -39 26 -52 0 -26 20 -50 50 -60 11 -3 20 -11 20 -17 0
-28 42 -64 94 -82 53 -18 59 -18 90 -3 19 9 37 25 41 36 5 16 15 21 45 21 47
0 55 16 29 64 -10 20 -28 53 -39 73 -24 45 -26 80 -4 104 35 39 23 139 -19
147 -30 6 -41 -44 -41 -191 -1 -158 -7 -170 -64 -137 -18 11 -43 20 -54 20
-23 0 -89 66 -115 114 -15 30 -15 35 11 124 8 30 12 60 9 68 -5 14 -35 17 -63
7z"/>
<path d="M7004 8180 c-5 -5 -8 -26 -6 -46 3 -27 11 -38 29 -45 48 -18 69 27
37 76 -17 26 -43 32 -60 15z"/>
<path d="M6500 8154 c-17 -44 -9 -88 16 -92 26 -4 36 27 26 77 -9 44 -29 51
-42 15z"/>
<path d="M6338 8110 c-27 -16 -50 -70 -37 -86 29 -35 119 4 119 50 0 41 -42
59 -82 36z"/>
<path d="M7140 8091 c0 -38 40 -87 63 -78 38 14 0 107 -44 107 -14 0 -19 -7
-19 -29z"/>
<path d="M4696 8080 c-39 -21 -64 -28 -81 -24 -33 8 -85 -47 -85 -91 0 -16 -9
-54 -20 -83 -37 -98 -19 -205 38 -218 15 -3 46 -26 68 -50 43 -46 64 -52 101
-31 109 62 138 76 179 86 50 13 105 38 115 53 11 17 -27 105 -59 136 -29 29
-64 94 -102 190 -28 71 -65 79 -154 32z m59 -99 c46 -18 51 -22 78 -87 29 -70
40 -155 22 -172 -5 -5 -53 -12 -106 -14 -95 -5 -96 -5 -108 21 -6 14 -19 39
-28 56 -26 47 -20 107 18 165 37 57 48 60 124 31z"/>
<path d="M4673 7842 c-27 -4 -29 -15 -7 -37 23 -23 79 -16 79 9 0 21 -34 34
-72 28z"/>
<path d="M3845 8050 c-27 -21 -65 -42 -83 -46 -52 -10 -60 -33 -56 -169 2 -66
4 -131 6 -145 5 -38 44 -60 107 -60 77 0 116 27 136 93 8 28 15 57 15 64 0 8
18 36 40 64 38 48 40 55 40 119 0 67 0 68 -38 94 -57 39 -104 35 -167 -14z
m125 -81 c9 -16 7 -27 -9 -55 -12 -19 -21 -41 -21 -49 0 -14 -58 -105 -84
-130 -37 -37 -63 4 -41 65 19 54 19 79 0 86 -19 8 -19 44 0 71 15 21 26 24
122 31 14 1 27 -6 33 -19z"/>
<path d="M6783 8030 c-10 -27 -15 -29 -42 -24 -40 8 -41 -11 -3 -54 50 -56 86
-32 80 55 -4 55 -19 65 -35 23z"/>
<path d="M5647 8036 c-3 -8 2 -16 14 -19 21 -6 34 7 24 23 -9 15 -32 12 -38
-4z"/>
<path d="M5777 8028 c-8 -13 -18 -37 -22 -55 -5 -26 -2 -34 15 -43 46 -25 75
10 68 81 -4 43 -39 53 -61 17z"/>
<path d="M7044 8013 c-5 -17 1 -53 16 -97 12 -39 25 -112 29 -162 5 -50 11
-96 15 -102 13 -21 31 -13 51 21 24 40 25 137 1 182 -9 17 -16 35 -16 41 0 25
-63 144 -76 144 -7 0 -17 -12 -20 -27z"/>
<path d="M5183 8013 c-7 -2 -13 -15 -13 -28 0 -30 36 -44 58 -21 14 14 14 17
-3 36 -19 21 -22 22 -42 13z"/>
<path d="M6902 7998 c-33 -33 8 -132 52 -126 27 4 33 52 12 102 -16 37 -41 47
-64 24z"/>
<path d="M6418 7973 c-43 -36 -48 -43 -48 -76 0 -31 39 -77 66 -77 13 0 16 7
11 35 -5 33 -5 34 27 33 42 -1 56 8 56 35 -1 26 -43 77 -64 77 -8 0 -29 -12
-48 -27z"/>
<path d="M6603 7985 c-18 -20 -16 -28 12 -59 46 -50 79 -24 50 38 -18 38 -41
45 -62 21z"/>
<path d="M7214 7923 c3 -10 10 -47 16 -83 7 -35 19 -77 27 -94 10 -19 13 -43
10 -70 -3 -23 -3 -46 1 -52 7 -10 74 -44 86 -44 7 0 8 128 0 155 -3 12 -15 25
-26 30 -15 7 -28 32 -42 79 -17 54 -28 71 -50 83 -26 14 -27 13 -22 -4z"/>
<path d="M5533 7923 c-21 -8 -14 -66 10 -94 70 -84 200 -77 221 12 4 20 0 30
-23 47 l-29 21 -26 -20 c-27 -21 -56 -20 -56 2 0 28 -59 48 -97 32z"/>
<path d="M6186 7901 c-41 -46 -44 -145 -5 -169 30 -19 59 9 59 57 0 20 4 50 9
67 16 56 -26 86 -63 45z"/>
<path d="M4098 7843 c-14 -16 -34 -41 -44 -58 -10 -16 -21 -32 -25 -35 -26
-21 -36 -126 -18 -179 13 -35 14 -36 52 -17 23 13 27 13 27 1 0 -39 85 -59
116 -28 9 10 44 39 78 66 88 70 103 106 70 168 -14 28 -19 30 -49 25 -28 -6
-36 -3 -45 14 -24 45 -43 59 -71 53 -14 -3 -30 0 -33 6 -12 18 -31 13 -58 -16z
m94 -80 c18 -9 40 -19 48 -23 24 -11 24 -57 0 -90 -38 -54 -94 -49 -125 10
-20 39 -19 62 6 94 24 31 27 31 71 9z"/>
<path d="M4160 7695 c-17 -21 1 -39 29 -30 27 8 28 45 2 45 -10 0 -24 -7 -31
-15z"/>
<path d="M6797 7863 c-14 -14 -6 -36 24 -64 41 -38 59 -37 59 1 0 23 -6 33
-25 42 -14 6 -25 15 -25 20 0 10 -24 11 -33 1z"/>
<path d="M6623 7844 c-16 -7 -17 -75 -2 -126 13 -50 37 -49 89 2 46 45 49 59
18 95 -23 25 -79 41 -105 29z"/>
<path d="M6312 7763 c2 -30 7 -39 25 -41 17 -3 24 3 29 22 7 31 -10 56 -38 56
-16 0 -19 -6 -16 -37z"/>
<path d="M6457 7763 c-18 -17 -6 -62 21 -81 43 -32 66 -32 70 -1 5 41 -67 106
-91 82z"/>
<path d="M5815 7734 c-43 -43 -36 -115 12 -122 18 -3 24 4 33 35 23 77 -3 128
-45 87z"/>
<path d="M6914 7715 c-9 -36 2 -55 30 -55 31 0 41 26 21 56 -20 31 -43 30 -51
-1z"/>
<path d="M6778 7693 c-12 -51 46 -154 93 -166 53 -14 35 71 -31 146 -37 40
-56 47 -62 20z"/>
<path d="M5118 7678 c-21 -11 -38 -26 -38 -34 0 -8 1 -14 3 -14 1 0 27 -9 57
-20 30 -11 67 -20 82 -20 24 0 28 4 28 28 0 32 -7 42 -40 65 -31 21 -46 21
-92 -5z"/>
<path d="M5561 7664 c-12 -15 -21 -31 -21 -35 0 -19 -32 -8 -54 18 l-24 27
-65 -33 c-76 -38 -84 -55 -62 -127 8 -27 15 -58 15 -69 0 -19 56 -63 117 -94
31 -15 78 -14 93 4 10 12 5 17 -25 29 -61 26 -84 111 -43 166 24 33 52 39 66
14 11 -19 74 -32 116 -24 24 4 32 12 39 39 10 39 -2 53 -75 91 -48 26 -52 25
-77 -6z"/>
<path d="M6132 7658 c-14 -14 -16 -51 -3 -76 5 -9 14 -31 21 -48 15 -41 69
-82 81 -63 5 8 6 32 2 54 -12 75 -11 80 23 81 40 1 54 10 54 34 0 13 -9 22
-26 26 -25 6 -37 -2 -47 -31 -2 -5 -16 1 -32 13 -31 25 -55 28 -73 10z"/>
<path d="M4957 7613 c-4 -3 -7 -22 -7 -42 0 -63 68 -150 119 -151 24 0 142 39
151 50 3 4 13 9 23 13 24 9 22 46 -5 56 -12 4 -50 2 -91 -7 -38 -7 -80 -11
-94 -7 -22 5 -24 9 -19 41 6 30 4 35 -19 44 -31 12 -49 13 -58 3z"/>
<path d="M6623 7604 c-6 -17 43 -149 63 -165 19 -16 54 -1 55 24 3 46 -7 75
-44 130 -21 30 -64 37 -74 11z"/>
<path d="M7179 7583 c-20 -54 9 -133 49 -133 50 1 55 53 10 122 -28 44 -45 47
-59 11z"/>
<path d="M6329 7579 c-26 -26 -20 -76 14 -101 29 -23 40 -22 62 2 17 19 17 25
5 57 -23 65 -46 77 -81 42z"/>
<path d="M3760 7518 l-30 -63 20 -20 c45 -45 146 -15 170 49 24 69 3 96 -75
96 l-54 0 -31 -62z"/>
<path d="M6024 7535 c-13 -69 12 -125 56 -125 17 0 32 51 25 86 -6 37 -36 74
-58 74 -10 0 -18 -12 -23 -35z"/>
<path d="M6492 7547 c-13 -14 -22 -36 -22 -54 0 -38 28 -90 52 -96 37 -10 63
58 38 101 -5 9 -14 29 -20 45 -12 33 -20 34 -48 4z"/>
<path d="M3956 7438 c-23 -32 -20 -65 5 -73 31 -10 73 24 77 63 3 30 2 32 -32
32 -25 0 -39 -6 -50 -22z"/>
<path d="M6172 7419 c-16 -6 -22 -14 -18 -26 3 -10 8 -30 12 -46 4 -20 18 -33
50 -47 69 -32 110 -23 99 21 -16 61 -96 116 -143 98z"/>
<path d="M3514 7411 c-22 -10 -44 -58 -44 -95 1 -33 33 -64 71 -68 26 -2 35
-8 37 -25 3 -18 14 -24 59 -33 45 -10 57 -9 64 2 20 32 3 70 -41 88 -32 13
-36 24 -21 62 19 51 -62 96 -125 69z"/>
<path d="M3767 7342 c-10 -10 -17 -34 -17 -53 0 -27 7 -40 30 -57 47 -35 85
-39 115 -11 31 30 31 55 0 102 -23 33 -30 37 -69 37 -29 0 -48 -6 -59 -18z"/>
<path d="M6392 7337 c-27 -29 -27 -38 -1 -71 30 -38 65 -35 86 8 9 21 13 44 9
60 -5 21 -12 26 -39 26 -22 0 -41 -8 -55 -23z"/>
<path d="M5936 7308 c-9 -12 -16 -29 -16 -38 0 -45 63 -79 87 -47 15 18 25 66
18 88 -9 28 -69 26 -89 -3z"/>
<path d="M6083 7255 c-39 -44 23 -129 116 -160 59 -19 81 -14 134 34 31 29 35
61 9 84 -30 27 -48 20 -61 -23 -6 -21 -16 -42 -22 -46 -20 -12 -54 17 -84 71
-24 45 -34 55 -55 55 -14 -1 -31 -7 -37 -15z"/>
<path d="M3395 7144 c-56 -63 -59 -122 -11 -169 74 -71 130 -52 160 55 28 100
3 150 -73 149 -39 0 -50 -5 -76 -35z"/>
<path d="M6251 7031 c-23 -23 -18 -52 10 -69 49 -31 83 40 34 72 -23 15 -26
15 -44 -3z"/>
<path d="M6473 6980 c-29 -12 -30 -44 -1 -64 52 -37 97 -2 64 49 -18 27 -28
29 -63 15z"/>
<path d="M3088 6939 c-35 -20 -16 -83 30 -100 20 -8 37 -6 69 6 86 33 61 105
-36 105 -25 0 -54 -5 -63 -11z"/>
<path d="M6352 6923 c-19 -7 -42 -58 -42 -91 0 -17 8 -40 18 -52 15 -18 24
-21 50 -15 35 7 72 47 72 77 0 20 -60 89 -76 87 -5 0 -15 -3 -22 -6z"/>
<path d="M2800 6731 c-14 -3 -34 -11 -45 -18 -20 -11 -20 -12 3 -57 12 -25 29
-46 37 -46 24 0 94 50 101 72 3 11 2 24 -3 29 -15 15 -66 26 -93 20z"/>
<path d="M6268 6689 c-37 -14 -35 -31 6 -74 43 -44 95 -49 116 -11 11 21 10
28 -9 55 -12 17 -28 31 -34 31 -7 0 -21 2 -32 5 -11 2 -32 -1 -47 -6z"/>
<path d="M6306 6511 c-24 -27 -17 -65 12 -69 24 -4 62 22 62 42 -1 37 -49 54
-74 27z"/>
<path d="M7095 6805 c-29 -28 -31 -45 -10 -85 14 -27 61 -50 103 -50 19 0 62
50 62 72 0 26 -38 63 -79 77 -46 15 -48 15 -76 -14z"/>
<path d="M4870 6973 c-14 -3 -29 -8 -35 -13 -5 -4 -22 -10 -37 -14 -33 -8 -38
-44 -10 -69 20 -18 87 -23 97 -8 3 5 18 12 34 16 16 3 37 15 47 27 18 19 18
20 -9 44 -28 24 -38 26 -87 17z"/>
<path d="M4563 6739 c-18 -12 -33 -28 -33 -37 1 -19 65 -72 87 -72 43 0 89 63
79 106 -6 21 -12 24 -54 24 -30 0 -58 -8 -79 -21z"/>
<path d="M4271 7048 c-125 -134 -215 -221 -252 -243 -10 -5 -42 -24 -72 -42
-29 -17 -73 -37 -98 -44 -24 -7 -48 -16 -54 -20 -5 -4 -84 -21 -175 -39 -536
-103 -633 -162 -647 -395 l-6 -92 51 -51 c67 -67 79 -92 92 -198 6 -49 15 -99
20 -111 l10 -23 795 0 c446 0 795 4 795 9 0 9 -26 72 -66 158 -13 28 -24 57
-24 62 0 6 -4 11 -10 11 -5 0 -10 6 -10 14 0 28 -170 263 -249 346 -9 9 -47
52 -86 95 -38 43 -77 86 -86 94 -21 21 -49 79 -49 103 0 30 47 96 130 180 84
86 117 141 126 210 6 41 4 46 -17 51 -13 4 -28 7 -33 7 -5 0 -44 -37 -85 -82z"/>
<path d="M5374 6864 c-80 -77 -124 -110 -280 -208 -32 -20 -52 -42 -65 -71
-18 -40 -18 -43 2 -140 11 -55 24 -104 28 -110 5 -5 13 -32 20 -58 12 -48 36
-95 56 -109 5 -4 61 -8 123 -8 87 0 127 -5 174 -21 58 -19 118 -62 118 -84 0
-5 8 -23 17 -40 11 -20 18 -63 21 -127 l4 -98 320 0 320 0 -15 23 c-8 12 -18
42 -22 66 -9 53 -45 160 -73 216 -22 43 -70 185 -122 355 -17 58 -38 119 -46
137 -8 17 -14 36 -14 43 0 18 -91 212 -115 243 -5 7 -48 20 -95 29 -47 9 -114
23 -150 32 -107 25 -107 25 -206 -70z"/>
<path d="M6771 6696 c-19 -78 -14 -296 10 -389 11 -45 25 -87 31 -94 5 -7 31
-15 56 -18 26 -4 69 -13 95 -22 27 -8 50 -13 52 -11 3 3 -69 180 -119 293 -8
17 -17 41 -21 55 -4 14 -11 30 -15 35 -4 6 -22 52 -40 103 -18 50 -34 92 -35
92 -1 0 -8 -20 -14 -44z"/>
<path d="M5020 5422 l-285 -2 -19 -48 c-19 -47 -43 -102 -91 -207 -14 -31 -25
-58 -25 -61 0 -3 -7 -22 -16 -42 -9 -21 -25 -55 -34 -77 -10 -22 -29 -65 -43
-95 -14 -31 -29 -68 -32 -83 -4 -15 -11 -27 -15 -27 -4 0 -11 -12 -15 -27 -3
-16 -14 -46 -24 -68 -11 -22 -31 -66 -45 -97 -14 -31 -26 -60 -26 -63 0 -7
-17 -46 -104 -237 -14 -31 -26 -60 -26 -63 0 -3 -12 -32 -26 -63 -56 -124 -78
-173 -124 -282 -50 -117 -70 -163 -85 -193 -8 -16 -15 -33 -15 -38 0 -10 -15
-46 -75 -174 -35 -78 -52 -118 -60 -145 -4 -14 -14 -34 -21 -45 -8 -11 -14
-23 -14 -27 0 -5 143 -8 318 -8 l318 0 18 43 c10 23 28 65 41 92 12 28 26 61
30 75 4 14 13 39 20 55 7 17 22 51 34 78 l20 47 426 0 c396 0 426 -1 432 -17
3 -10 17 -42 29 -71 13 -29 24 -58 24 -65 0 -7 6 -21 14 -32 7 -11 17 -31 21
-45 4 -14 18 -47 30 -75 12 -27 25 -58 28 -67 6 -17 31 -18 327 -18 285 0 320
2 320 16 0 14 -35 102 -75 189 -38 83 -65 144 -65 149 0 6 -12 34 -66 153 -13
28 -24 55 -24 58 0 3 -12 32 -26 63 -59 130 -81 180 -119 272 -15 36 -33 79
-40 95 -8 17 -37 84 -65 150 -28 66 -57 134 -64 150 -50 108 -66 145 -66 150
0 3 -12 32 -26 63 -14 31 -35 77 -46 102 -10 25 -25 59 -33 75 -8 17 -28 64
-45 105 -18 41 -40 93 -50 115 -10 22 -22 52 -25 68 -4 15 -11 27 -15 27 -4 0
-11 12 -14 26 -11 42 -60 143 -71 146 -5 2 -138 2 -295 0z m20 -734 c0 -7 6
-25 14 -40 8 -14 19 -43 26 -65 7 -21 16 -42 20 -48 4 -5 13 -27 20 -48 7 -22
18 -51 26 -65 8 -15 14 -31 14 -36 0 -5 8 -27 19 -50 29 -63 62 -147 77 -193
l13 -43 -244 0 c-135 0 -245 3 -245 6 0 3 7 20 15 37 8 18 21 50 28 72 24 66
97 247 118 291 10 22 19 44 19 48 0 4 6 22 14 39 8 18 22 49 30 70 14 36 36
50 36 25z"/>
<path d="M1602 4673 l4 -728 25 -91 c59 -207 186 -388 338 -481 55 -34 154
-81 187 -89 16 -4 34 -10 39 -14 27 -19 310 -60 418 -60 111 0 337 34 434 66
172 56 297 141 404 274 51 63 121 200 134 260 4 19 11 40 15 45 29 38 34 155
37 843 l4 702 -305 0 -306 0 0 -597 c0 -329 -5 -639 -10 -689 -9 -86 -41 -181
-73 -220 -63 -76 -140 -119 -245 -135 -153 -23 -294 15 -379 103 -35 37 -83
122 -83 147 0 10 -6 23 -12 29 -10 10 -14 164 -16 687 l-3 675 -305 0 -305 0
3 -727z"/>
<path d="M6540 4326 l0 -1076 305 0 305 0 0 325 0 325 138 0 137 0 17 -28 c9
-15 49 -74 89 -132 40 -58 115 -168 167 -245 116 -171 134 -196 150 -213 6 -7
12 -18 12 -23 0 -5 141 -9 350 -9 193 0 350 3 350 8 0 9 -92 140 -114 163 -9
9 -16 19 -16 22 0 11 -64 101 -77 110 -7 4 -13 13 -13 18 0 6 -20 38 -45 70
-25 33 -45 62 -45 65 0 3 -11 20 -25 38 -14 17 -29 36 -34 42 -4 5 -14 21 -21
35 -7 13 -19 28 -26 32 -8 4 -14 13 -14 19 0 5 -10 23 -22 39 -79 100 -79 84
2 127 151 80 247 173 314 305 37 74 47 113 66 257 11 75 9 100 -9 207 -25 147
-75 254 -161 344 -58 61 -161 135 -220 158 -19 8 -39 18 -45 22 -5 4 -37 15
-70 24 -33 9 -76 21 -95 27 -24 8 -249 13 -692 15 l-658 4 0 -1075z m1132 553
c137 -29 208 -112 208 -244 0 -79 -17 -123 -68 -175 -37 -37 -61 -52 -116 -69
-63 -19 -92 -21 -308 -21 l-238 0 0 260 0 260 235 0 c135 0 256 -5 287 -11z"/>
<path d="M1850 2843 c1 -35 346 -402 549 -583 46 -41 94 -84 106 -95 12 -11
41 -36 66 -55 63 -50 79 -62 105 -85 27 -22 42 -34 134 -105 98 -75 98 -75
240 -175 66 -46 228 -156 252 -170 9 -5 61 -37 115 -71 54 -34 121 -74 148
-90 28 -15 52 -31 55 -35 3 -4 21 -14 40 -23 49 -23 94 -48 100 -55 3 -3 41
-24 84 -46 44 -22 85 -44 90 -48 21 -16 214 -113 386 -194 93 -44 111 -53 235
-108 33 -15 68 -31 77 -36 9 -4 59 -25 110 -45 51 -20 98 -39 103 -44 6 -4 23
-10 40 -14 16 -4 48 -16 72 -27 23 -10 45 -19 48 -19 3 0 25 -9 49 -20 l43
-19 64 25 c35 14 83 34 106 45 24 10 47 19 52 19 5 0 22 7 38 15 35 18 120 55
128 55 3 0 27 10 53 21 26 12 67 31 92 42 117 51 348 159 380 177 8 5 62 32
120 61 58 28 141 72 185 97 44 25 103 57 130 70 28 14 52 28 55 31 3 3 21 14
40 24 19 10 67 38 105 62 39 24 86 54 105 65 19 11 49 29 65 40 17 11 44 27
60 36 37 21 99 67 103 76 2 5 8 8 14 8 8 0 59 33 113 73 5 4 46 33 90 64 44
32 89 65 99 75 11 10 23 18 26 18 4 0 18 10 32 23 14 12 38 31 52 41 15 11 39
30 54 44 15 13 43 35 62 50 19 15 42 34 50 42 9 8 41 35 70 60 133 112 447
424 545 541 93 112 125 153 125 160 0 5 -1397 9 -3230 9 -1777 0 -3230 -3
-3230 -7z"/>
</g>
</svg>
