<?xml version="1.0" standalone="no"?>
<!DOCTYPE svg PUBLIC "-//W3C//DTD SVG 20010904//EN"
 "http://www.w3.org/TR/2001/REC-SVG-20010904/DTD/svg10.dtd">
<svg version="1.0" xmlns="http://www.w3.org/2000/svg"
 width="2880.000000pt" height="2765.000000pt" viewBox="0 0 2880.000000 2765.000000"
 preserveAspectRatio="xMidYMid meet">

<g transform="translate(0.000000,2765.000000) scale(0.100000,-0.100000)"
fill="#000000" stroke="none">
<path d="M14099 27026 c-2 -2 -80 -6 -174 -10 -402 -14 -500 -19 -506 -29 -9
-13 -137 -26 -321 -34 -82 -3 -148 -9 -148 -14 0 -5 -36 -9 -79 -9 -88 0 -121
-7 -99 -21 8 -6 -5 -9 -34 -9 -27 0 -48 -4 -48 -10 0 -5 -16 -10 -35 -10 -19
0 -35 -4 -35 -10 0 -5 -20 -10 -45 -10 -25 0 -45 -4 -45 -8 0 -9 -210 -42
-262 -42 -14 0 -28 -5 -30 -11 -2 -6 -33 -14 -68 -19 -72 -9 -100 -18 -100
-31 0 -5 -22 -9 -50 -9 -27 0 -50 -4 -50 -8 0 -5 -40 -16 -90 -26 -49 -11 -90
-23 -90 -27 0 -5 -22 -9 -50 -9 -27 0 -50 -4 -50 -10 0 -5 -17 -12 -37 -15
-21 -3 -46 -10 -55 -16 -10 -5 -31 -9 -47 -9 -16 0 -31 -5 -33 -11 -2 -5 -19
-14 -38 -19 -94 -23 -143 -39 -149 -47 -3 -6 -17 -13 -31 -16 -77 -18 -104
-27 -110 -37 -4 -6 -26 -14 -49 -17 -23 -3 -44 -10 -47 -14 -3 -5 -18 -9 -34
-9 -16 0 -32 -4 -35 -10 -3 -5 -15 -10 -25 -10 -10 0 -21 -6 -23 -12 -4 -10
-6 -10 -6 0 -1 17 -21 15 -21 -3 0 -9 -17 -20 -45 -27 -25 -7 -45 -16 -45 -20
0 -4 -11 -8 -25 -8 -14 0 -25 -4 -25 -9 0 -4 -21 -16 -47 -26 -27 -10 -54 -24
-61 -31 -7 -8 -44 -23 -82 -34 -39 -12 -70 -24 -70 -29 0 -4 -31 -21 -70 -36
-38 -15 -70 -31 -70 -34 0 -4 -27 -17 -60 -30 -33 -13 -60 -27 -60 -32 0 -4
-22 -15 -50 -25 -27 -10 -50 -23 -50 -30 0 -6 -31 -25 -70 -40 -38 -16 -70
-35 -70 -41 0 -13 -12 -17 -37 -14 -7 1 -13 -3 -13 -9 0 -5 -9 -10 -20 -10
-11 0 -20 -7 -20 -15 0 -10 -10 -15 -27 -15 -22 0 -25 -2 -13 -10 12 -8 11
-10 -7 -10 -12 0 -25 -4 -28 -10 -3 -5 -15 -10 -26 -10 -10 0 -19 -7 -19 -15
0 -8 -7 -15 -15 -15 -8 0 -15 -4 -15 -10 0 -5 -9 -10 -20 -10 -11 0 -20 -4
-20 -10 0 -5 -7 -10 -15 -10 -8 0 -15 -5 -15 -11 0 -17 -27 -39 -49 -39 -12 0
-21 -5 -21 -11 0 -11 -25 -39 -35 -39 -3 0 -17 -11 -31 -25 -14 -14 -29 -25
-35 -25 -13 0 -59 -46 -59 -58 0 -6 -12 -13 -26 -16 -14 -4 -43 -25 -64 -46
-22 -22 -44 -40 -50 -40 -5 0 -10 -6 -10 -14 0 -8 -9 -18 -20 -21 -11 -3 -20
-11 -20 -16 0 -5 -7 -9 -15 -9 -8 0 -15 -5 -15 -11 0 -12 -25 -39 -35 -39 -4
0 -20 -13 -35 -30 -15 -16 -31 -30 -35 -30 -8 0 -35 -27 -35 -35 0 -10 -28
-35 -39 -35 -6 0 -11 -5 -11 -11 0 -11 -25 -39 -35 -39 -10 0 -35 -28 -35 -39
0 -6 -4 -11 -10 -11 -5 0 -10 -7 -10 -15 0 -8 -7 -15 -15 -15 -8 0 -15 -8 -15
-18 0 -10 -9 -24 -20 -32 -11 -8 -20 -20 -20 -27 0 -7 -5 -13 -11 -13 -14 0
-39 -26 -39 -40 0 -6 -4 -8 -10 -5 -5 3 -10 -1 -10 -9 0 -8 -11 -26 -25 -40
-14 -14 -25 -32 -25 -41 0 -8 -5 -15 -11 -15 -16 0 -39 -26 -39 -44 0 -9 -4
-16 -10 -16 -5 0 -10 -11 -10 -25 0 -14 -5 -25 -11 -25 -17 0 -39 -27 -39 -49
0 -12 -6 -21 -15 -21 -8 0 -15 -7 -15 -15 0 -8 -4 -15 -10 -15 -5 0 -10 -9
-10 -20 0 -11 -4 -20 -10 -20 -5 0 -10 -11 -10 -25 0 -18 -4 -23 -15 -19 -9 4
-15 0 -15 -10 0 -9 -4 -16 -10 -16 -5 0 -10 -11 -10 -25 0 -14 -4 -25 -10 -25
-5 0 -10 -11 -10 -25 0 -16 -6 -25 -15 -25 -8 0 -15 -9 -15 -20 0 -11 -4 -20
-10 -20 -5 0 -10 -7 -10 -15 0 -8 -9 -24 -20 -35 -11 -11 -17 -26 -14 -35 4
-8 1 -15 -5 -15 -6 0 -11 -11 -11 -25 0 -14 -4 -25 -10 -25 -5 0 -10 -9 -10
-20 0 -11 -7 -20 -15 -20 -10 0 -15 -10 -15 -34 0 -19 -4 -36 -10 -38 -5 -1
-10 -20 -12 -40 -1 -23 -7 -38 -15 -38 -8 0 -13 -13 -13 -35 0 -19 -4 -35 -10
-35 -5 0 -10 -16 -10 -35 0 -19 -4 -35 -10 -35 -5 0 -10 -16 -10 -35 0 -24 -5
-35 -15 -35 -12 0 -15 -14 -15 -66 0 -41 -4 -63 -10 -59 -6 4 -10 -17 -10 -54
0 -34 -4 -61 -10 -61 -6 0 -10 -31 -10 -74 0 -41 -4 -76 -10 -78 -5 -1 -13
-45 -16 -95 -4 -51 -11 -93 -15 -93 -5 0 -9 -52 -9 -115 0 -96 -3 -115 -15
-115 -17 0 -19 -51 -8 -201 7 -82 8 -88 14 -49 5 35 6 26 7 -42 2 -61 -2 -88
-9 -88 -9 0 -10 -32 -5 -117 8 -130 8 -126 0 -200 -4 -35 -2 -53 5 -53 13 0
15 -37 2 -42 -5 -1 -13 -69 -16 -150 -7 -133 -6 -148 9 -148 20 0 21 -17 1
-36 -19 -19 -19 -29 0 -48 13 -13 15 -961 15 -8414 0 -6711 -3 -8402 -12
-8406 -10 -5 -10 -7 0 -12 17 -8 15 -44 -3 -44 -8 0 -15 -7 -15 -15 0 -8 7
-15 15 -15 12 0 15 -19 15 -115 0 -87 -3 -115 -13 -115 -7 0 -13 -8 -13 -19 0
-11 5 -17 13 -14 9 4 13 -5 13 -26 0 -31 -14 -42 -23 -18 -4 8 -6 9 -6 0 -1
-6 6 -19 16 -28 10 -11 12 -19 6 -23 -6 -4 -13 -17 -17 -29 -6 -17 -3 -23 8
-23 9 0 16 -9 16 -20 0 -11 -6 -20 -13 -20 -9 0 -13 -36 -15 -141 -3 -125 -1
-141 12 -136 14 5 16 -4 16 -66 0 -44 4 -67 9 -59 5 9 10 -7 13 -44 3 -32 10
-60 16 -62 7 -2 12 -23 12 -48 0 -24 5 -44 10 -44 6 0 10 -30 10 -70 0 -40 4
-70 10 -70 6 0 10 -18 10 -39 0 -22 7 -46 15 -55 8 -8 15 -28 15 -45 0 -17 5
-31 10 -31 6 0 10 -20 10 -45 0 -25 4 -45 9 -45 5 0 12 -11 15 -25 4 -14 11
-25 16 -25 6 0 10 -16 10 -35 0 -19 5 -35 10 -35 6 0 10 -18 10 -40 0 -29 4
-40 15 -40 8 0 15 -9 15 -20 0 -11 5 -20 10 -20 6 0 10 -16 10 -35 0 -19 5
-35 10 -35 6 0 10 -11 10 -25 0 -16 6 -25 15 -25 9 0 15 -9 15 -25 0 -14 5
-25 10 -25 6 0 10 -9 10 -20 0 -11 7 -20 15 -20 9 0 15 -9 15 -25 0 -14 5 -25
10 -25 6 0 10 -7 10 -15 0 -8 5 -15 10 -15 6 0 10 -11 10 -25 0 -16 6 -25 15
-25 8 0 15 -9 15 -20 0 -11 5 -20 10 -20 6 0 10 -5 10 -11 0 -6 6 -17 12 -24
30 -33 38 -45 38 -55 0 -5 5 -10 10 -10 6 0 10 -11 10 -25 0 -14 5 -25 11 -25
16 0 39 -26 39 -44 0 -9 5 -16 10 -16 6 0 10 -7 10 -15 0 -8 5 -15 11 -15 6 0
17 -6 25 -14 11 -11 11 -16 1 -19 -9 -4 -9 -6 1 -6 6 -1 12 -6 12 -12 0 -7 16
-27 36 -45 19 -19 30 -34 24 -34 -7 0 -6 -6 4 -15 8 -8 19 -15 25 -15 6 0 11
-7 11 -15 0 -8 5 -15 10 -15 6 0 10 -5 10 -11 0 -11 25 -39 35 -39 8 0 35 -27
35 -35 0 -7 14 -24 47 -60 13 -13 23 -29 23 -35 0 -5 5 -10 10 -10 14 0 60
-46 60 -60 0 -5 5 -10 10 -10 14 0 60 -46 60 -60 0 -5 7 -10 15 -10 8 0 15 -4
15 -9 0 -5 10 -13 22 -17 23 -7 48 -28 48 -39 0 -8 27 -35 35 -35 4 0 20 -13
35 -30 15 -16 33 -30 39 -30 6 0 11 -7 11 -15 0 -9 9 -15 25 -15 15 0 25 -6
25 -14 0 -8 9 -18 20 -21 11 -3 20 -13 20 -21 0 -8 7 -14 15 -14 8 0 25 -11
39 -25 14 -14 29 -25 33 -25 5 0 15 -9 23 -20 8 -11 20 -20 27 -20 7 0 22 -10
35 -23 13 -12 38 -29 56 -36 17 -7 32 -19 32 -25 0 -7 16 -18 35 -25 19 -7 35
-19 35 -27 0 -8 10 -14 25 -14 14 0 25 -4 25 -10 0 -5 5 -10 11 -10 6 0 17 -6
24 -12 36 -32 46 -38 65 -38 11 0 20 -4 20 -8 0 -4 15 -16 33 -27 17 -10 34
-21 37 -25 3 -4 31 -17 63 -30 31 -13 57 -30 57 -37 0 -7 9 -13 21 -13 11 0
27 -7 35 -15 8 -8 21 -12 29 -9 9 4 15 0 15 -10 0 -9 8 -16 20 -16 11 0 20 -4
20 -10 0 -5 11 -10 25 -10 14 0 25 -4 25 -9 0 -5 11 -12 25 -15 14 -4 25 -10
25 -15 0 -5 32 -22 70 -37 39 -15 70 -30 70 -34 0 -3 27 -14 60 -24 33 -10 60
-22 60 -27 0 -5 9 -9 21 -9 11 0 27 -7 35 -15 8 -8 34 -20 57 -27 23 -6 45
-17 50 -24 4 -7 26 -15 48 -19 49 -9 111 -33 121 -48 3 -5 20 -10 37 -9 17 0
31 -4 31 -9 0 -5 11 -9 24 -9 14 0 31 -7 40 -15 8 -8 28 -15 45 -15 17 0 31
-4 31 -8 0 -8 30 -19 100 -38 14 -4 27 -10 30 -14 5 -7 115 -35 195 -48 22 -4
38 -11 35 -17 -3 -5 13 -13 35 -17 60 -9 179 -41 185 -49 7 -9 173 -49 204
-49 14 0 26 -4 26 -9 0 -5 30 -13 68 -19 37 -6 78 -13 92 -16 14 -3 52 -11 85
-17 33 -6 62 -14 65 -18 6 -9 121 -30 224 -42 44 -5 82 -13 85 -17 10 -15 147
-36 321 -49 41 -3 77 -9 80 -13 5 -8 79 -15 305 -30 388 -26 470 -33 473 -41
2 -5 296 -9 680 -8 373 0 670 4 662 7 -8 4 62 13 155 20 94 7 226 17 295 22
69 5 163 13 210 16 47 3 87 10 90 14 3 4 43 10 90 13 47 4 108 10 135 16 28 5
83 12 123 16 39 4 72 10 72 15 0 4 28 11 63 14 34 4 90 14 125 22 35 8 76 14
92 14 15 0 30 5 32 12 3 7 31 15 64 19 98 13 259 42 264 49 3 4 23 10 45 13
22 4 60 11 85 17 25 6 62 13 82 16 21 4 35 10 33 14 -3 4 8 10 23 13 15 3 45
11 67 17 22 7 57 14 78 17 21 3 37 11 37 18 0 7 16 15 38 18 20 3 57 11 82 17
25 6 57 14 73 17 15 3 27 9 27 14 0 4 20 11 45 15 25 3 45 10 45 15 0 5 11 9
25 9 14 0 25 5 25 10 0 6 15 10 34 10 19 0 36 5 38 11 3 9 46 24 111 36 15 3
27 12 27 19 0 8 9 14 20 14 10 0 29 4 42 9 13 5 41 14 63 21 22 7 42 16 45 19
3 3 31 15 63 25 31 11 57 23 57 28 0 4 15 8 34 8 20 0 36 6 39 14 3 8 19 17
36 21 17 4 37 12 44 19 14 14 100 51 141 60 17 4 37 16 47 27 9 10 30 22 48
25 17 4 31 10 31 15 0 5 11 9 25 9 15 0 25 6 25 14 0 8 16 20 35 26 19 6 35
16 35 21 0 5 11 11 25 15 14 3 25 9 25 13 0 4 10 8 22 8 13 1 24 7 26 13 2 5
12 10 23 10 10 0 19 6 19 13 0 7 16 19 35 26 19 7 35 17 35 22 0 5 11 9 25 9
16 0 25 6 25 15 0 9 9 15 23 15 12 0 29 9 37 20 8 11 25 20 37 20 13 0 23 6
23 14 0 8 16 20 35 26 19 6 35 17 35 24 0 6 16 18 35 25 19 7 35 17 35 22 0 5
5 9 10 9 6 0 22 11 36 25 14 14 30 25 35 25 13 0 39 26 39 39 0 6 6 8 13 5 14
-5 57 27 57 44 0 5 11 13 25 16 14 4 25 13 25 21 0 9 10 15 25 15 16 0 25 6
25 15 0 8 4 15 10 15 5 0 26 16 46 35 19 19 40 35 46 35 11 0 38 25 38 35 0 8
27 35 35 35 10 0 35 28 35 39 0 6 4 11 9 11 4 0 22 13 39 30 18 16 34 30 38
30 7 0 34 27 34 35 0 10 28 35 39 35 6 0 11 5 11 11 0 12 50 59 63 59 4 0 7 7
7 15 0 8 5 15 10 15 6 0 10 7 10 15 0 8 5 15 10 15 14 0 60 46 60 60 0 5 7 10
15 10 8 0 15 7 15 16 0 8 16 30 35 48 19 19 35 38 35 45 0 6 5 11 10 11 6 0
10 7 10 16 0 9 11 27 25 40 14 13 25 28 25 34 0 6 11 21 25 34 14 13 25 31 25
40 0 9 5 16 10 16 6 0 10 5 10 11 0 6 6 17 13 24 29 33 37 45 37 55 0 5 5 10
10 10 6 0 10 9 10 20 0 11 5 20 10 20 6 0 10 7 10 15 0 8 7 15 15 15 9 0 15 9
15 21 0 11 6 27 13 34 31 36 37 46 37 65 0 11 5 20 10 20 6 0 10 11 10 25 0
14 4 25 10 25 5 0 12 11 16 25 3 14 10 25 15 25 5 0 9 11 9 25 0 14 5 25 10
25 6 0 10 9 10 20 0 11 5 20 10 20 6 0 10 11 10 24 0 14 7 31 15 40 8 8 15 22
15 31 0 9 7 23 15 31 8 9 15 26 15 40 0 13 5 24 10 24 6 0 10 16 10 35 0 19 5
35 10 35 6 0 10 17 10 38 0 24 3 32 9 24 11 -18 21 7 21 54 0 19 5 34 10 34 6
0 10 20 10 45 0 25 5 45 10 45 6 0 10 25 10 56 0 36 5 61 15 70 9 10 15 34 15
65 0 27 5 49 10 49 6 0 10 27 10 60 0 41 4 60 13 60 9 0 11 1185 9 5897 -2
3730 -6 5899 -12 5901 -6 2 -10 44 -10 93 0 49 -4 89 -9 89 -4 0 -11 24 -14
52 -4 29 -11 54 -17 56 -5 2 -10 24 -10 48 0 24 -4 44 -10 44 -5 0 -10 20 -10
45 0 25 -4 45 -10 45 -5 0 -13 18 -16 40 -4 22 -10 40 -15 40 -5 0 -9 16 -9
35 0 19 -4 35 -10 35 -5 0 -10 9 -10 19 0 10 -7 21 -15 25 -8 3 -15 17 -15 31
0 14 -4 25 -10 25 -5 0 -10 14 -10 30 0 20 -5 30 -15 30 -8 0 -15 9 -15 20 0
11 -4 20 -10 20 -5 0 -10 7 -10 15 0 8 -4 15 -10 15 -5 0 -10 11 -10 25 0 14
-4 25 -9 25 -5 0 -12 11 -15 25 -4 14 -11 25 -16 25 -6 0 -10 9 -10 20 0 12
-11 32 -25 46 -14 14 -25 30 -25 37 0 7 -11 21 -25 31 -14 10 -25 26 -25 35 0
9 -9 23 -20 31 -11 8 -20 18 -20 23 0 4 -11 18 -25 31 -14 13 -25 29 -25 36 0
13 -49 60 -62 60 -5 0 -8 7 -8 15 0 8 -5 15 -11 15 -12 0 -39 25 -39 36 0 8
-52 54 -62 54 -5 0 -8 5 -8 11 0 11 -25 39 -35 39 -8 0 -35 27 -35 35 0 11
-25 32 -47 39 -23 7 -93 70 -93 83 0 5 -16 15 -35 22 -19 7 -35 17 -35 22 0 5
-7 9 -15 9 -8 0 -15 7 -15 15 0 8 -8 15 -19 15 -10 0 -32 14 -50 30 -17 17
-31 26 -31 20 0 -5 -4 -10 -10 -10 -5 0 -10 5 -10 11 0 17 -27 39 -49 39 -12
0 -21 6 -21 14 0 8 -16 20 -35 27 -19 7 -35 17 -35 21 0 4 -11 8 -25 8 -14 0
-25 6 -25 13 0 16 -41 37 -70 37 -11 0 -20 5 -20 10 0 6 -11 10 -25 10 -16 0
-25 6 -25 15 0 9 -17 20 -45 27 -25 7 -45 18 -45 25 0 7 -11 13 -25 13 -14 0
-25 4 -25 9 0 5 -13 11 -30 15 -16 3 -43 9 -60 12 -16 4 -30 13 -30 20 0 8
-10 14 -25 14 -14 0 -25 5 -25 10 0 6 -16 10 -35 10 -19 0 -35 5 -35 10 0 6
-9 10 -21 10 -11 0 -27 7 -35 15 -9 8 -26 15 -40 15 -13 0 -24 5 -24 10 0 6
-16 10 -35 10 -19 0 -35 5 -35 10 0 6 -15 10 -34 10 -20 0 -36 6 -39 14 -3 7
-20 16 -39 19 -60 10 -93 20 -99 30 -6 8 -138 41 -219 54 -19 3 -38 10 -41 15
-3 4 -36 11 -73 15 -36 3 -69 10 -72 14 -3 5 -25 9 -50 9 -24 0 -44 5 -44 10
0 6 -30 10 -69 10 -46 0 -71 4 -73 12 -4 12 -63 21 -228 34 -41 4 -78 10 -81
15 -3 5 -43 14 -90 19 -46 5 -111 14 -144 21 -89 19 -1583 19 -1675 0 -36 -7
-105 -16 -154 -21 -48 -4 -91 -12 -95 -18 -3 -5 -38 -13 -76 -16 -180 -14
-249 -23 -253 -34 -2 -7 -26 -12 -63 -12 -32 0 -59 -4 -59 -9 0 -5 -26 -11
-57 -14 -85 -7 -196 -26 -203 -36 -3 -4 -23 -11 -45 -14 -22 -4 -60 -11 -85
-17 -25 -6 -63 -13 -85 -16 -22 -4 -45 -12 -50 -19 -10 -12 -43 -21 -117 -32
-23 -3 -38 -11 -38 -19 0 -10 -14 -14 -50 -14 -27 0 -50 -4 -50 -10 0 -5 -11
-10 -25 -10 -14 0 -25 -4 -25 -10 0 -5 -16 -10 -35 -10 -21 0 -35 -5 -35 -13
0 -7 -36 -23 -80 -37 -44 -14 -80 -30 -80 -36 0 -7 -12 -14 -27 -17 -42 -7
-134 -43 -142 -55 -3 -5 -23 -17 -43 -25 -21 -9 -38 -21 -38 -26 0 -6 -9 -11
-20 -11 -11 0 -20 -4 -20 -8 0 -5 -16 -14 -35 -22 -19 -8 -35 -19 -35 -26 0
-6 -15 -18 -32 -25 -37 -15 -58 -32 -58 -48 0 -6 -5 -11 -11 -11 -13 0 -39
-25 -39 -39 0 -6 -14 -14 -31 -19 -44 -11 -99 -3 -99 14 0 8 -6 14 -13 14 -36
0 -37 53 -32 2035 3 1062 8 1945 12 1963 3 17 8 32 12 32 4 0 13 28 21 62 13
59 17 69 48 103 6 7 12 16 12 20 0 4 6 13 13 20 28 32 37 45 37 52 0 5 9 15
20 23 11 8 20 20 20 27 0 7 5 13 11 13 6 0 26 16 45 35 18 19 40 35 49 35 8 0
15 5 15 10 0 6 7 10 15 10 8 0 15 5 15 10 0 6 9 10 20 10 11 0 20 7 20 15 0 9
9 15 25 15 14 0 25 5 25 10 0 6 16 10 35 10 24 0 35 5 35 15 0 10 11 15 35 15
19 0 35 5 35 10 0 6 24 10 54 10 32 0 56 5 58 11 5 16 561 15 566 -1 2 -6 35
-10 78 -10 43 0 74 -4 74 -10 0 -5 15 -10 34 -10 19 0 41 -7 50 -15 8 -8 31
-15 50 -15 20 0 36 -4 36 -10 0 -5 11 -10 25 -10 16 0 25 -6 25 -15 0 -8 9
-15 20 -15 11 0 20 -4 20 -10 0 -5 9 -10 20 -10 12 0 32 -10 45 -22 41 -38 54
-48 65 -48 15 0 41 -26 33 -33 -7 -8 22 -37 36 -37 6 0 13 -11 17 -25 3 -14
10 -25 14 -25 4 0 14 -15 21 -32 7 -18 18 -38 25 -45 6 -6 17 -45 24 -87 7
-42 17 -76 21 -76 5 0 9 -556 9 -1240 l0 -1240 2763 0 c1519 0 2767 4 2773 8
8 5 13 561 17 2070 5 1783 4 2062 -9 2062 -11 0 -14 15 -14 64 0 35 -4 66 -9
68 -5 2 -11 28 -14 58 -3 30 -11 56 -16 58 -6 2 -11 24 -11 48 0 24 -4 44 -10
44 -5 0 -10 25 -10 55 0 30 -4 55 -10 55 -5 0 -10 18 -10 40 0 29 -4 40 -15
40 -10 0 -15 11 -15 35 0 19 -4 35 -10 35 -5 0 -10 16 -10 35 0 19 -4 35 -9
35 -5 0 -12 11 -15 25 -4 14 -11 25 -16 25 -6 0 -10 14 -10 31 0 17 -6 37 -12
44 -32 36 -38 46 -38 65 0 11 -4 20 -10 20 -5 0 -10 14 -10 30 0 17 -4 30 -10
30 -5 0 -10 9 -10 20 0 11 -7 20 -15 20 -9 0 -15 9 -15 25 0 14 -4 25 -10 25
-5 0 -10 11 -10 24 0 13 -7 26 -15 30 -8 3 -15 12 -15 21 0 8 -4 15 -10 15 -5
0 -10 7 -10 15 0 8 -4 15 -10 15 -5 0 -10 9 -10 20 0 11 -7 23 -15 26 -8 4
-15 15 -15 25 0 10 -4 19 -10 19 -5 0 -10 5 -10 11 0 6 -6 17 -12 24 -30 33
-38 45 -38 55 0 5 -4 10 -10 10 -5 0 -10 9 -10 20 0 11 -4 20 -10 20 -5 0 -10
7 -10 15 0 8 -7 15 -15 15 -9 0 -15 9 -15 25 0 18 -7 26 -25 31 -16 4 -25 13
-25 25 0 10 -4 19 -10 19 -5 0 -10 7 -10 16 0 8 -4 12 -10 9 -5 -3 -10 -2 -10
3 0 5 -11 22 -25 38 -14 16 -25 32 -25 37 0 4 -7 7 -15 7 -8 0 -15 6 -15 13 0
7 -9 19 -20 27 -11 8 -20 22 -20 31 0 10 -11 20 -25 23 -16 4 -25 13 -25 26 0
11 -3 20 -7 20 -13 0 -63 47 -63 59 0 6 -5 11 -11 11 -11 0 -39 25 -39 35 0 8
-27 35 -35 35 -10 0 -35 27 -35 39 0 5 -10 13 -22 17 -26 8 -48 28 -48 43 0 6
-5 11 -10 11 -14 0 -60 46 -60 60 0 5 -7 10 -15 10 -8 0 -15 4 -15 9 0 5 -16
15 -35 22 -19 7 -35 17 -35 22 0 12 -26 37 -39 37 -6 0 -11 6 -11 14 0 7 -15
20 -32 27 -37 15 -58 32 -58 48 0 6 -11 11 -25 11 -14 0 -25 4 -25 10 0 5 -11
12 -25 16 -14 3 -25 12 -25 19 0 7 -15 19 -32 26 -18 7 -46 26 -61 42 -15 17
-30 27 -33 24 -6 -6 -12 -3 -58 38 -16 13 -32 22 -37 19 -5 -3 -9 -1 -9 3 0 5
-16 15 -35 22 -19 7 -35 19 -35 27 0 8 -7 14 -15 14 -8 0 -15 5 -15 10 0 6
-11 10 -24 10 -14 0 -31 6 -39 14 -8 8 -29 22 -48 30 -37 17 -71 37 -79 47 -3
4 -30 17 -60 30 -30 13 -60 28 -66 34 -7 6 -34 20 -60 30 -27 10 -51 21 -54
25 -3 4 -34 20 -70 36 -36 16 -71 34 -78 41 -7 7 -22 13 -32 13 -21 0 -112 37
-120 49 -3 4 -25 15 -50 25 -25 10 -47 21 -50 24 -3 4 -39 18 -80 32 -41 13
-79 29 -85 35 -8 10 -115 42 -205 63 -13 3 -31 11 -38 19 -7 7 -31 16 -53 19
-22 4 -46 13 -54 20 -7 8 -19 14 -26 14 -7 0 -29 5 -48 12 -89 28 -121 41
-121 49 0 5 -11 9 -24 9 -13 0 -59 9 -102 19 -44 11 -103 22 -132 26 -28 4
-50 10 -47 15 4 7 -67 23 -157 37 -21 3 -38 9 -38 14 0 5 -20 9 -45 9 -25 0
-45 4 -45 9 0 13 -28 22 -99 31 -35 5 -68 14 -72 22 -7 11 -11 10 -19 -2 -5
-8 -10 -10 -10 -4 0 9 -187 44 -237 44 -13 0 -23 5 -23 10 0 6 -20 10 -45 10
-25 0 -45 4 -45 9 0 5 -15 12 -32 15 -65 12 -83 15 -110 18 -16 1 -28 8 -28
15 0 10 -26 13 -104 13 -74 0 -106 4 -109 13 -4 9 -8 8 -16 -3 -6 -8 -11 -10
-11 -4 0 8 -31 14 -82 18 -215 16 -261 21 -266 34 -3 8 -35 12 -115 12 -62 0
-229 7 -372 15 -230 13 -1114 22 -1126 11z m-5659 -2826 c0 -5 -4 -10 -10 -10
-5 0 -10 5 -10 10 0 6 5 10 10 10 6 0 10 -4 10 -10z m9360 -11215 c0 -8 5 -15
10 -15 6 0 10 7 10 15 0 8 7 15 15 15 8 0 15 -7 15 -15 0 -12 16 -15 80 -15
47 0 80 -4 80 -10 0 -5 18 -10 40 -10 22 0 40 -4 40 -10 0 -5 14 -10 30 -10
20 0 30 -5 30 -15 0 -8 7 -15 15 -15 8 0 15 -4 15 -10 0 -5 9 -10 21 -10 19 0
49 -21 49 -35 0 -10 28 -35 39 -35 6 0 11 -11 11 -25 0 -14 5 -25 10 -25 6 0
10 -15 10 -34 0 -19 5 -36 11 -38 7 -2 11 -140 12 -451 2 -385 4 -449 17 -458
11 -8 12 -12 3 -16 -7 -2 -13 -17 -13 -33 0 -16 6 -31 13 -33 9 -4 9 -8 -1
-15 -20 -13 -23 -713 -4 -719 14 -5 17 -43 2 -43 -5 0 -10 -17 -10 -37 0 -49
-35 -173 -43 -153 -3 10 -6 8 -6 -7 -1 -25 -16 -31 -25 -10 -3 6 -4 3 -3 -7 1
-15 -7 -22 -35 -29 -21 -5 -38 -13 -38 -18 0 -5 -20 -9 -45 -9 -25 0 -45 -4
-45 -10 0 -5 -22 -10 -50 -10 -29 0 -50 -5 -50 -11 0 -5 -4 -7 -10 -4 -5 3
-10 1 -10 -4 0 -6 -20 -11 -45 -11 -25 0 -45 -4 -45 -9 0 -5 -24 -11 -52 -14
-96 -10 -162 -24 -166 -35 -2 -7 -23 -12 -48 -12 -24 0 -44 -4 -44 -9 0 -5
-25 -12 -55 -15 -30 -3 -80 -9 -110 -12 -38 -4 -55 -10 -55 -20 0 -10 -13 -14
-44 -14 -25 0 -48 -4 -51 -10 -3 -5 -31 -10 -61 -10 -41 0 -54 -4 -54 -15 0
-11 -12 -15 -50 -15 -27 0 -50 -4 -50 -10 0 -5 -25 -10 -55 -10 -30 0 -55 -4
-55 -10 0 -5 -22 -10 -49 -10 -31 0 -55 -6 -65 -15 -9 -9 -33 -15 -60 -15 -25
0 -46 -4 -46 -10 0 -5 -20 -10 -45 -10 -25 0 -45 -4 -45 -10 0 -5 -22 -10 -49
-10 -31 0 -55 -6 -65 -15 -8 -8 -32 -15 -55 -15 -23 0 -41 -4 -41 -10 0 -5
-22 -10 -49 -10 -31 0 -55 -6 -65 -15 -9 -10 -34 -15 -70 -15 -31 0 -56 -4
-56 -10 0 -5 -15 -10 -34 -10 -19 0 -38 -4 -41 -10 -3 -5 -20 -10 -36 -10 -17
0 -32 -6 -35 -15 -4 -9 -19 -15 -35 -15 -16 0 -29 -4 -29 -10 0 -5 -6 -10 -13
-10 -19 0 -78 -30 -101 -52 -11 -10 -26 -18 -34 -18 -16 0 -42 -24 -42 -39 0
-6 -5 -11 -12 -11 -14 0 -108 -96 -108 -110 0 -6 -7 -10 -15 -10 -10 0 -15
-10 -15 -34 0 -19 -4 -36 -9 -38 -5 -1 -11 -52 -14 -113 -2 -60 -8 -118 -12
-127 -8 -19 -25 -24 -25 -8 0 6 -13 10 -30 10 -23 0 -30 -4 -30 -20 0 -11 5
-20 10 -20 6 0 10 -11 10 -25 0 -14 -4 -25 -10 -25 -16 0 -12 -119 4 -136 8
-8 31 -14 50 -14 29 0 36 -4 36 -20 0 -17 -7 -20 -50 -20 l-50 0 0 -35 c0 -19
5 -35 10 -35 6 0 10 12 10 28 1 21 3 23 10 12 7 -13 7 -71 1 -132 -1 -5 -8 -8
-16 -8 -11 0 -15 12 -15 44 0 29 -5 46 -14 49 -8 3 -17 1 -20 -6 -2 -7 -5 7
-5 31 -1 30 -5 42 -16 42 -13 0 -15 31 -15 220 0 140 -4 220 -10 220 -5 0 -10
9 -10 20 0 11 -4 20 -10 20 -5 0 -10 7 -10 15 0 8 -5 15 -11 15 -11 0 -39 25
-39 35 0 14 -30 35 -49 35 -12 0 -21 5 -21 10 0 6 -11 10 -25 10 -16 0 -25 6
-25 15 0 11 -12 15 -45 15 -25 0 -45 5 -45 10 0 6 -47 10 -120 10 -73 0 -120
-4 -120 -10 0 -5 5 -10 10 -10 6 0 10 -7 10 -15 0 -9 9 -15 23 -15 12 0 29 -9
37 -20 8 -11 25 -20 37 -20 14 0 23 -6 23 -15 0 -8 5 -15 11 -15 14 0 39 -25
39 -39 0 -6 7 -11 16 -11 9 0 41 -25 72 -55 31 -30 60 -55 64 -55 4 0 8 -9 8
-19 0 -11 5 -23 10 -26 6 -3 10 -17 10 -31 0 -13 5 -24 10 -24 6 0 10 -7 10
-16 0 -8 -4 -12 -10 -9 -5 3 -10 -1 -10 -10 0 -31 -25 -44 -76 -40 -27 2 -50
9 -52 14 -2 6 -13 11 -24 11 -10 0 -26 7 -34 15 -9 8 -33 15 -55 15 -21 0 -39
5 -39 10 0 6 -73 10 -200 10 -127 0 -200 -4 -200 -10 0 -5 -20 -10 -45 -10
-33 0 -45 -4 -45 -15 0 -10 -11 -15 -35 -15 -19 0 -35 -4 -35 -10 0 -5 -11
-10 -24 -10 -14 0 -28 -4 -31 -10 -3 -5 -15 -10 -26 -10 -11 0 -22 -7 -25 -15
-4 -8 -15 -15 -25 -15 -10 0 -19 -4 -19 -10 0 -5 -9 -10 -20 -10 -11 0 -20 -4
-20 -10 0 -5 -7 -10 -15 -10 -8 0 -15 -6 -15 -14 0 -8 -11 -17 -24 -20 -14 -3
-35 -21 -47 -39 -13 -17 -29 -36 -36 -40 -7 -4 -13 -15 -13 -22 0 -8 -3 -15
-7 -15 -30 0 -33 -61 -33 -673 0 -662 -1 -647 48 -647 11 0 22 -7 26 -15 5
-13 76 -15 555 -15 475 0 552 2 565 15 8 8 31 15 50 15 20 0 36 5 36 10 0 6 9
10 20 10 11 0 20 5 20 10 0 6 7 10 15 10 8 0 15 5 15 11 0 7 9 19 20 29 14 12
20 31 21 68 2 37 6 49 16 45 9 -3 13 3 13 21 0 14 5 26 10 26 6 0 10 11 10 25
0 14 5 25 10 25 6 0 10 -11 10 -25 0 -18 5 -25 20 -25 11 0 20 -4 20 -10 0 -5
9 -10 19 -10 11 0 23 -10 27 -22 13 -38 9 -281 -5 -286 -6 -2 -11 -11 -11 -19
0 -9 -6 -13 -15 -9 -8 3 -15 1 -15 -5 0 -33 -68 -69 -130 -69 -30 0 -50 -5
-52 -12 -4 -10 -81 -15 -319 -19 -327 -7 -459 -16 -459 -30 0 -5 -20 -9 -44
-9 -24 0 -46 -4 -48 -10 -1 -5 -36 -17 -75 -27 -42 -10 -73 -23 -73 -30 0 -7
-9 -13 -20 -13 -11 0 -20 -4 -20 -10 0 -5 -10 -10 -21 -10 -12 0 -29 -8 -38
-18 -9 -10 -32 -27 -51 -38 -43 -24 -51 -32 -70 -68 -8 -17 -25 -41 -37 -54
-13 -14 -23 -33 -23 -43 0 -11 -4 -19 -10 -19 -7 0 -10 -673 -10 -2000 0
-1327 -3 -2000 -10 -2000 -14 0 -12 -27 3 -34 10 -5 10 -7 0 -12 -7 -3 -13
-23 -13 -45 0 -22 -4 -47 -9 -57 -5 -9 -14 -29 -22 -45 -7 -15 -18 -27 -26
-27 -7 0 -13 -8 -13 -17 -1 -25 -24 -53 -44 -53 -9 0 -16 -4 -16 -10 0 -5 -6
-10 -14 -10 -8 0 -16 -7 -20 -15 -3 -8 -12 -15 -21 -15 -8 0 -15 -4 -15 -10 0
-5 -7 -10 -15 -10 -8 0 -15 -4 -15 -10 0 -5 -11 -10 -25 -10 -14 0 -28 -7 -31
-15 -4 -8 -17 -15 -30 -15 -13 0 -24 -4 -24 -10 0 -5 -18 -10 -40 -10 -22 0
-40 -4 -40 -10 0 -5 -20 -10 -45 -10 -31 0 -47 -5 -51 -15 -5 -11 -23 -15 -75
-15 -48 0 -69 -4 -69 -12 0 -9 -4 -8 -11 2 -8 11 -12 12 -16 3 -3 -10 -38 -13
-124 -13 -73 0 -119 -4 -119 -10 0 -5 -16 -10 -35 -10 -24 0 -35 -5 -35 -15 0
-8 -9 -15 -20 -15 -12 0 -32 -10 -45 -22 -44 -42 -54 -48 -75 -48 -11 0 -20
-7 -20 -15 0 -10 -11 -15 -35 -15 -19 0 -35 -4 -35 -10 0 -6 -60 -10 -160 -10
-100 0 -160 4 -160 10 0 6 -20 10 -45 10 -33 0 -45 4 -45 15 0 10 -11 15 -35
15 -24 0 -35 5 -35 15 0 8 -6 15 -13 15 -7 0 -19 9 -27 20 -8 11 -22 20 -31
20 -9 0 -19 7 -23 15 -3 8 -15 15 -26 15 -11 0 -20 7 -20 16 0 18 -23 44 -39
44 -6 0 -11 5 -11 11 0 6 -7 17 -15 25 -9 10 -15 34 -15 65 l0 49 -54 0 -54 0
-18 45 c-9 25 -21 45 -25 45 -5 0 -9 27 -9 60 0 33 4 60 10 60 6 0 10 11 10
25 0 14 5 25 10 25 6 0 10 9 10 20 0 11 7 23 15 26 8 4 15 17 15 30 0 13 5 24
10 24 6 0 10 9 10 20 0 11 7 20 15 20 10 0 15 11 15 35 0 19 4 35 8 35 32 0
32 41 32 4193 0 2745 -3 4127 -10 4127 -5 0 -10 5 -10 11 0 16 -26 39 -45 39
-23 0 -45 24 -45 49 0 12 -4 21 -9 21 -5 0 -12 20 -15 45 -4 25 -11 45 -17 45
-15 0 -10 90 6 106 8 9 15 26 15 40 0 13 5 24 10 24 6 0 10 9 10 21 0 26 23
49 49 49 12 0 21 6 21 15 0 8 9 15 20 15 18 0 20 7 20 69 0 49 5 74 15 85 8 8
15 28 15 45 0 17 4 31 9 31 5 0 12 11 15 25 8 31 48 75 70 75 9 0 16 5 16 10
0 6 11 10 25 10 16 0 25 6 25 15 0 10 10 15 30 15 17 0 30 5 30 10 0 6 14 10
30 10 17 0 30 5 30 10 0 6 23 10 50 10 38 0 50 4 50 15 0 12 13 15 55 15 30 0
55 5 55 10 0 6 27 10 60 10 33 0 60 4 60 10 0 6 35 10 85 10 69 0 85 3 85 15
0 13 20 15 120 15 73 0 120 4 120 10 0 6 127 10 360 10 233 0 360 -4 360 -10
0 -5 9 -10 20 -10 11 0 20 -7 20 -15 0 -8 6 -15 14 -15 8 0 18 -9 21 -20 3
-11 12 -20 18 -20 12 0 57 -99 57 -125 0 -8 7 -15 15 -15 9 0 15 -9 15 -25 0
-14 4 -25 8 -25 4 0 14 -16 21 -35 7 -19 19 -35 27 -35 8 0 14 -5 14 -10 0 -6
4 -16 10 -23 35 -44 59 -67 69 -67 6 0 11 -4 11 -10 0 -5 7 -10 15 -10 8 0 15
-7 15 -15 0 -8 9 -15 20 -15 11 0 20 -4 20 -10 0 -5 11 -10 25 -10 14 0 25 -4
25 -10 0 -5 23 -10 50 -10 38 0 50 -4 50 -15 0 -13 26 -15 175 -15 149 0 175
2 175 15 0 12 16 15 80 15 47 0 80 4 80 10 0 6 23 10 50 10 28 0 50 5 50 10 0
6 23 10 50 10 38 0 50 4 50 15 0 11 12 15 45 15 25 0 45 5 45 10 0 6 23 10 50
10 38 0 50 4 50 15 0 10 11 15 35 15 19 0 35 5 35 10 0 6 16 10 35 10 19 0 35
5 35 10 0 6 16 10 35 10 24 0 35 5 35 15 0 11 12 15 45 15 25 0 45 5 45 10 0
6 13 10 29 10 17 0 33 5 36 10 3 6 24 10 46 10 28 0 39 4 39 15 0 10 11 15 35
15 19 0 35 5 35 10 0 6 14 10 31 10 17 0 37 7 45 15 9 8 31 15 50 15 19 0 34
5 34 10 0 6 20 10 45 10 25 0 45 5 45 10 0 6 18 10 40 10 29 0 40 4 40 15 0
10 11 15 35 15 19 0 35 5 35 10 0 6 16 10 35 10 19 0 35 5 35 10 0 6 23 10 50
10 38 0 50 4 50 15 0 10 10 15 34 15 19 0 38 5 41 10 3 6 24 10 46 10 21 0 39
5 39 10 0 6 23 10 50 10 38 0 50 4 50 15 0 11 12 15 45 15 25 0 45 5 45 10 0
6 16 10 35 10 24 0 35 5 35 15 0 11 12 15 50 15 28 0 50 5 50 10 0 6 27 10 60
10 33 0 60 4 60 10 0 6 26 10 58 11 31 0 51 3 45 6 -32 13 -7 23 57 23 40 0
70 4 70 10 0 6 32 10 75 10 43 0 75 4 75 10 0 6 50 10 130 10 109 0 130 2 130
15 0 11 12 15 45 15 33 0 45 -4 45 -15z m-2280 -3965 c0 -11 -7 -20 -15 -20
-8 0 -15 9 -15 20 0 11 7 20 15 20 8 0 15 -9 15 -20z m80 -60 c0 -5 -4 -10
-10 -10 -5 0 -10 5 -10 10 0 6 5 10 10 10 6 0 10 -4 10 -10z m-100 -210 c0 -5
11 -10 25 -10 16 0 25 -6 25 -15 0 -10 -11 -15 -35 -15 -31 0 -35 3 -35 25 0
14 5 25 10 25 6 0 10 -4 10 -10z m40 -132 c0 -7 3 -23 6 -35 5 -17 2 -23 -10
-23 -9 0 -16 5 -16 10 0 6 -9 10 -20 10 -23 0 -26 14 -7 35 15 18 47 19 47 3z
m6 -222 c19 -20 18 -26 -6 -26 -11 0 -20 5 -20 10 0 6 -9 10 -20 10 -11 0 -20
5 -20 10 0 15 49 12 66 -4z m-26 -102 c0 -7 -27 -34 -34 -34 -3 0 -6 9 -6 20
0 13 7 20 20 20 11 0 20 -3 20 -6z m-7320 -3939 c0 -5 -5 -3 -10 5 -5 8 -10
20 -10 25 0 6 5 3 10 -5 5 -8 10 -19 10 -25z"/>
</g>
</svg>
